<?xml version="1.0" encoding="utf-8"?>
<!-- Generator: Adobe Illustrator 24.2.3, SVG Export Plug-In . SVG Version: 6.00 Build 0)  -->
<svg version="1.1" id="Warstwa_1" xmlns="http://www.w3.org/2000/svg" xmlns:xlink="http://www.w3.org/1999/xlink" x="0px" y="0px"
	 viewBox="0 0 300 300" style="enable-background:new 0 0 300 300;" xml:space="preserve">
<style type="text/css">
	.st0{fill:url(#SVGID_1_);}
	.st1{fill:url(#SVGID_2_);}
	.st2{fill:url(#SVGID_3_);}
	.st3{fill:url(#SVGID_4_);}
	.st4{fill:url(#SVGID_5_);}
	.st5{fill:url(#SVGID_6_);}
	.st6{fill:url(#SVGID_7_);}
	.st7{fill:url(#SVGID_8_);}
	.st8{fill:url(#SVGID_9_);}
	.st9{fill:url(#SVGID_10_);}
	.st10{fill:url(#SVGID_11_);}
	.st11{fill:url(#SVGID_12_);}
	.st12{fill:url(#SVGID_13_);}
	.st13{fill:url(#SVGID_14_);}
	.st14{fill:url(#SVGID_15_);}
	.st15{fill:url(#SVGID_16_);}
	.st16{fill:url(#SVGID_17_);}
	.st17{fill:url(#SVGID_18_);}
	.st18{fill:url(#SVGID_19_);}
	.st19{fill:url(#SVGID_20_);}
	.st20{fill:url(#SVGID_21_);}
	.st21{fill:url(#SVGID_22_);}
	.st22{fill:url(#SVGID_23_);}
	.st23{fill:url(#SVGID_24_);}
	.st24{fill:url(#SVGID_25_);}
	.st25{fill:url(#SVGID_26_);}
	.st26{fill:url(#SVGID_27_);}
	.st27{fill:url(#SVGID_28_);}
	.st28{fill:url(#SVGID_29_);}
	.st29{fill:url(#SVGID_30_);}
	.st30{fill:url(#SVGID_31_);}
	.st31{fill:url(#SVGID_32_);}
</style>
<g>
	<g>
		<linearGradient id="SVGID_1_" gradientUnits="userSpaceOnUse" x1="150" y1="300.1864" x2="150" y2="0.6711">
			<stop  offset="0" style="stop-color:#FF7CAE"/>
			<stop  offset="0.349" style="stop-color:#B50A94"/>
			<stop  offset="0.6755" style="stop-color:#4D0672"/>
			<stop  offset="1" style="stop-color:#5861D6"/>
		</linearGradient>
		<path class="st0" d="M150.03,300.19c-38.11,0-74.43-14.31-102.28-40.29c-27.71-25.85-44.5-60.83-47.28-98.49
			c-0.27-3.7-0.41-7.47-0.41-11.19c-0.32-5.44,0.08-18.47,10.59-21.2c9.38-2.49,16.41-7.55,20.32-14.62
			c4.13-7.48,4.65-16.76,1.51-26.85c-1.63-4.98-1-9.43,1.82-12.85c4.87-5.92,15.21-7.62,22.75-6.7c2.65-0.22,4.91-0.65,6.78-1.31
			c4.57-1.63,7.39-4.92,8.6-10.06c0.52-2.12,0.9-4.51,1.19-7.5c0.2-1.98,0.34-4.04,0.47-6.03l0.13-1.89
			c-0.3-5.82,1.1-13.96,5.91-19.16c2.88-3.11,6.55-4.75,10.9-4.86c10.55-0.35,19.38-1.09,28.22-3.52c4.88-1.44,9.65-3.54,14.27-5.56
			c8.72-3.83,17.74-7.78,27.69-7.39c3.54,0.23,7.23,0.63,10.97,1.18c35.21,5.21,67.53,22.95,91.02,49.95
			C286.94,79.09,300,114.04,300,150.22C300,232.91,232.73,300.19,150.03,300.19z M53.09,68.94c-6.62,0-14.07,1.88-17.88,6.51
			c-2.58,3.14-3.12,7.09-1.61,11.75c3.24,10.41,2.69,20.01-1.6,27.78c-4.07,7.36-11.34,12.62-21.05,15.19
			C1.29,132.67,0.94,145,1.24,150.19c0,3.73,0.14,7.46,0.41,11.14c5.7,77.21,70.87,137.69,148.38,137.69
			c82.04,0,148.79-66.75,148.79-148.79c0-73.2-54.51-136.47-126.8-147.18c-3.71-0.55-7.37-0.94-10.86-1.17
			C151.49,1.49,143,5.21,134,9.16c-4.65,2.04-9.46,4.15-14.42,5.62c-8.96,2.47-17.87,3.22-28.51,3.57
			c-4.03,0.11-7.41,1.61-10.07,4.48c-4.57,4.93-5.89,12.72-5.6,18.37l-0.13,1.96c-0.14,2-0.28,4.07-0.47,6.07
			c-0.3,3.05-0.69,5.49-1.22,7.66c-1.31,5.55-4.37,9.12-9.35,10.89c-1.97,0.7-4.33,1.15-7.2,1.38
			C55.77,69.02,54.45,68.94,53.09,68.94z"/>
	</g>
	<g>
		<linearGradient id="SVGID_2_" gradientUnits="userSpaceOnUse" x1="151.263" y1="296.6339" x2="151.263" y2="4.7184">
			<stop  offset="0" style="stop-color:#FF7CAE"/>
			<stop  offset="0.349" style="stop-color:#B50A94"/>
			<stop  offset="0.6755" style="stop-color:#4D0672"/>
			<stop  offset="1" style="stop-color:#5861D6"/>
		</linearGradient>
		<path class="st1" d="M149.16,296.63c-3.91,0-7.75-0.14-11.43-0.42c-11.2-0.86-22.29-2.95-32.96-6.22
			c-23.94-7.38-45.29-20.35-61.73-37.52c-18.9-19.72-31.46-45.28-36.3-73.91c-0.8-4.64-1.38-9.39-1.74-14.11
			c-0.06-0.8-0.11-1.6-0.16-2.41c-0.15-2.56-0.17-5.18-0.2-7.72c-0.01-1.07-0.02-2.15-0.04-3.23c-0.21-11.67,3.4-18.83,10.44-20.71
			c9.2-2.45,16.09-7.43,19.93-14.39c4.02-7.3,4.55-16.3,1.51-26.04c-2.33-7.47,0.36-13.45,7.59-16.84
			c4.56-2.14,10.67-3.03,16.37-2.39c1.01-0.09,1.92-0.2,2.78-0.34c1.45-0.24,2.71-0.55,3.87-0.97c4.48-1.62,7.15-4.74,8.39-9.81
			c0.51-2.1,0.91-4.49,1.2-7.31l0.13-1.24c0.23-2.11,0.46-4.3,0.49-6.44c0.17-11.09,4.59-23.1,16.49-23.52
			c8.35-0.3,18.05-0.84,27.49-3.58c4.86-1.41,9.61-3.52,14.2-5.56c8.42-3.75,17.13-7.63,26.74-7.21l0,0
			c3.17,0.14,6.5,0.45,10.8,1.02c7.67,1.01,15.02,2.58,21.84,4.65c16.47,4.99,32.06,12.77,46.33,23.12
			c2.31,1.68,4.74,3.59,7.41,5.84c6.02,5.04,11.74,10.69,17,16.81c1.43,1.67,2.84,3.38,4.17,5.08c0.71,0.9,1.4,1.81,2.09,2.73
			c0.53,0.72,1.07,1.44,1.58,2.17c16.81,23.93,25.27,52.9,24.46,83.77c-0.09,9.25-1.05,18.52-2.85,27.54
			c-3.91,19.63-11.67,38-23.07,54.59c-27.59,40.11-73.08,64.25-121.68,64.57C149.9,296.63,149.53,296.63,149.16,296.63z
			 M56.72,71.74c-4.37,0-8.73,0.87-12.15,2.48c-4.68,2.19-9.67,6.64-6.95,15.38c3.14,10.06,2.58,19.39-1.6,26.99
			c-4,7.26-11.15,12.44-20.68,14.98c-8.14,2.17-9.68,11.81-9.54,19.51c0.02,1.08,0.03,2.16,0.04,3.24c0.02,2.52,0.05,5.13,0.2,7.66
			c0.05,0.8,0.1,1.59,0.16,2.39c0.35,4.69,0.93,9.4,1.72,14c4.81,28.39,17.25,53.73,35.98,73.27c16.3,17.02,37.46,29.89,61.21,37.2
			c10.58,3.25,21.58,5.32,32.69,6.17c4,0.3,8.19,0.44,12.45,0.41c48.21-0.32,93.33-24.26,120.69-64.05
			c11.31-16.46,19.01-34.67,22.88-54.14c1.79-8.95,2.74-18.14,2.83-27.32c0.8-30.62-7.58-59.33-24.24-83.05
			c-0.51-0.72-1.03-1.43-1.56-2.14c-0.68-0.91-1.37-1.81-2.07-2.71c-1.32-1.69-2.71-3.38-4.14-5.04
			c-5.21-6.07-10.89-11.67-16.86-16.67c-2.66-2.23-5.06-4.13-7.35-5.78c-14.16-10.27-29.62-17.99-45.97-22.94
			c-6.76-2.05-14.04-3.61-21.65-4.61c-4.26-0.56-7.56-0.87-10.69-1.01c-9.34-0.41-17.52,3.24-26.19,7.1
			c-4.63,2.06-9.42,4.19-14.36,5.62c-9.57,2.77-19.36,3.32-27.78,3.62C82.78,22.7,78.67,34.1,78.5,44.64
			c-0.03,2.2-0.27,4.42-0.5,6.56l-0.13,1.24c-0.3,2.87-0.7,5.31-1.22,7.47c-1.33,5.43-4.32,8.92-9.15,10.67
			c-1.23,0.44-2.56,0.78-4.08,1.03c-0.91,0.15-1.87,0.27-2.94,0.36l-0.06,0l-0.06-0.01C59.16,71.81,57.94,71.74,56.72,71.74z"/>
	</g>
	<g>
		<linearGradient id="SVGID_3_" gradientUnits="userSpaceOnUse" x1="152.551" y1="293.0906" x2="152.551" y2="8.7843">
			<stop  offset="0" style="stop-color:#FF7CAE"/>
			<stop  offset="0.349" style="stop-color:#B50A94"/>
			<stop  offset="0.6755" style="stop-color:#4D0672"/>
			<stop  offset="1" style="stop-color:#5861D6"/>
		</linearGradient>
		<path class="st2" d="M148.05,293.09c-3.47,0-6.72-0.1-9.89-0.31c-11.01-0.76-21.93-2.68-32.45-5.73
			c-24.2-7.07-45.27-19.39-60.95-35.62c-17.84-18.45-29.6-43.55-33.99-72.58c-0.7-4.66-1.2-9.31-1.47-13.82
			c-0.05-0.79-0.09-1.57-0.12-2.36c-0.1-2.35-0.08-4.75-0.07-7.08c0.01-1.21,0.01-2.42,0-3.64c-0.08-11.53,3.38-18.32,10.29-20.2
			c8.96-2.43,15.69-7.31,19.45-14.11c3.92-7.1,4.47-15.84,1.59-25.28c-2.22-7.28,0.44-13.12,7.48-16.46
			c4.43-2.1,10.38-3.01,15.94-2.43c0.99-0.09,1.87-0.2,2.7-0.35c1.41-0.24,2.64-0.55,3.76-0.96c4.35-1.6,6.95-4.64,8.17-9.56
			c0.51-2.05,0.9-4.38,1.2-7.11l0.13-1.21c0.23-2.06,0.47-4.18,0.51-6.28c0.23-10.8,4.6-22.51,16.17-22.99
			c8.12-0.34,17.55-0.92,26.76-3.63c4.72-1.39,9.34-3.45,13.81-5.44c8.21-3.66,16.71-7.44,26.09-7.15l0,0
			c3.1,0.1,6.48,0.37,10.63,0.86c7.81,0.91,15.06,2.35,21.55,4.29c16,4.76,31.42,12.18,45.85,22.06c2.58,1.77,5.06,3.72,7.36,5.57
			c6.01,4.84,11.7,10.25,16.93,16.08c1.44,1.61,2.85,3.25,4.17,4.87c0.71,0.87,1.41,1.74,2.09,2.63l0.12,0.15
			c0.5,0.64,1,1.29,1.48,1.95c16.31,22.84,24.06,51.32,22.42,82.39c-0.18,9-1.21,18.04-3.05,26.83
			c-3.98,19.12-11.7,37.03-22.95,53.22c-27.19,39.05-71.77,62.74-119.26,63.38C149.68,293.09,148.86,293.09,148.05,293.09z
			 M60.51,74.55c-4.33,0-8.66,0.87-12.05,2.48c-4.54,2.15-9.4,6.49-6.82,14.96c2.98,9.77,2.4,18.85-1.69,26.25
			c-3.93,7.1-10.92,12.19-20.21,14.71c-6.29,1.71-9.44,8.09-9.36,18.98c0.01,1.22,0,2.44,0,3.66c-0.01,2.31-0.02,4.7,0.07,7.02
			c0.03,0.78,0.07,1.56,0.12,2.34c0.27,4.48,0.76,9.09,1.45,13.71c4.35,28.77,15.99,53.64,33.65,71.9
			c15.52,16.08,36.41,28.28,60.4,35.29c10.43,3.02,21.26,4.93,32.18,5.68c3.87,0.25,7.88,0.35,12.25,0.29
			c47.08-0.63,91.28-24.13,118.24-62.84c11.15-16.05,18.81-33.8,22.75-52.76c1.83-8.72,2.85-17.67,3.03-26.62
			c1.63-30.8-6.04-59.01-22.19-81.61c-0.46-0.65-0.96-1.28-1.45-1.91l-0.12-0.15c-0.68-0.88-1.37-1.75-2.07-2.61
			c-1.31-1.61-2.7-3.23-4.13-4.83c-5.18-5.79-10.83-11.15-16.78-15.94c-2.28-1.83-4.74-3.77-7.28-5.51
			c-14.32-9.81-29.63-17.17-45.5-21.89c-6.42-1.92-13.6-3.34-21.34-4.24c-4.12-0.48-7.46-0.75-10.53-0.85
			c-9.11-0.32-17.09,3.26-25.54,7.04c-4.51,2.01-9.16,4.09-13.97,5.5c-9.35,2.74-18.87,3.34-27.06,3.68
			C85.87,26.71,81.82,37.8,81.6,48.04c-0.05,2.15-0.29,4.3-0.52,6.39l-0.13,1.2c-0.3,2.79-0.71,5.17-1.23,7.28
			c-1.31,5.29-4.24,8.7-8.96,10.43c-1.19,0.44-2.5,0.77-3.98,1.02c-0.88,0.15-1.81,0.27-2.86,0.37l-0.06,0.01l-0.06-0.01
			C62.72,74.61,61.61,74.55,60.51,74.55z"/>
	</g>
	<g>
		<linearGradient id="SVGID_4_" gradientUnits="userSpaceOnUse" x1="153.8312" y1="289.5623" x2="153.8312" y2="12.8427">
			<stop  offset="0" style="stop-color:#FF7CAE"/>
			<stop  offset="0.349" style="stop-color:#B50A94"/>
			<stop  offset="0.6755" style="stop-color:#4D0672"/>
			<stop  offset="1" style="stop-color:#5861D6"/>
		</linearGradient>
		<path class="st3" d="M146.66,289.56c-2.91,0-5.57-0.07-8.06-0.22c-10.72-0.62-21.46-2.38-31.93-5.23
			c-24.44-6.74-45.25-18.4-60.17-33.72c-16.87-17.28-27.83-41.92-31.67-71.26c-0.61-4.63-1.01-9.18-1.2-13.53
			c-0.03-0.77-0.06-1.54-0.08-2.31c-0.05-2.17-0.01-4.38,0.04-6.52c0.03-1.32,0.06-2.64,0.06-3.97
			c0.05-11.22,3.46-17.85,10.14-19.69c8.73-2.41,15.29-7.19,18.96-13.83c3.82-6.89,4.4-15.38,1.68-24.53
			c-2.11-7.09,0.51-12.8,7.36-16.08c4.3-2.06,10.1-2.99,15.51-2.47c0.95-0.09,1.81-0.21,2.62-0.35c1.37-0.24,2.56-0.55,3.65-0.96
			c4.22-1.58,6.75-4.53,7.96-9.31c0.51-2.01,0.9-4.28,1.2-6.92l0.14-1.18c0.24-2,0.48-4.07,0.54-6.1
			c0.29-10.52,4.6-21.94,15.85-22.46c8.31-0.42,17.17-1.04,26.03-3.68c4.59-1.37,9.08-3.38,13.42-5.32c8-3.58,16.27-7.31,25.45-7.09
			l0,0c3.09,0.07,6.41,0.29,10.46,0.69c8.05,0.8,15,2.08,21.26,3.92c15.5,4.51,30.76,11.58,45.37,20.99c2.6,1.68,5.1,3.6,7.31,5.3
			c5.94,4.58,11.61,9.74,16.85,15.35c1.47,1.57,2.87,3.14,4.17,4.67c0.71,0.84,1.41,1.68,2.1,2.53l0.26,0.32
			c0.46,0.56,0.91,1.13,1.34,1.71c15.61,21.48,22.85,50.25,20.38,81.01c-0.27,8.76-1.36,17.56-3.25,26.12
			c-4.05,18.62-11.73,36.07-22.83,51.85c-26.79,37.99-70.46,61.23-116.82,62.18C149.33,289.55,147.97,289.56,146.66,289.56z
			 M64.3,77.36c-4.29,0-8.6,0.88-11.95,2.49c-4.4,2.11-9.13,6.34-6.68,14.55c2.82,9.49,2.21,18.32-1.79,25.52
			c-3.85,6.95-10.68,11.94-19.75,14.44c-6.05,1.67-9.14,7.88-9.19,18.45c-0.01,1.33-0.03,2.67-0.06,3.99
			c-0.04,2.12-0.09,4.32-0.04,6.46c0.02,0.76,0.05,1.53,0.08,2.29c0.19,4.31,0.58,8.83,1.19,13.42
			c3.81,29.06,14.64,53.44,31.32,70.52c14.76,15.16,35.36,26.7,59.58,33.38c10.39,2.82,21.04,4.57,31.67,5.19
			c3.58,0.21,7.52,0.26,12.05,0.17c45.95-0.94,89.24-23.99,115.8-61.64c11-15.64,18.61-32.93,22.62-51.39
			c1.87-8.49,2.95-17.21,3.22-25.92c2.45-30.49-4.7-58.95-20.13-80.18c-0.41-0.57-0.86-1.11-1.3-1.66l-0.26-0.33
			c-0.68-0.84-1.37-1.68-2.08-2.5c-1.29-1.51-2.68-3.07-4.13-4.63c-5.2-5.56-10.81-10.68-16.7-15.21c-2.19-1.68-4.67-3.59-7.22-5.24
			c-14.5-9.35-29.66-16.36-45.03-20.84c-6.18-1.81-13.06-3.08-21.03-3.87c-4.02-0.4-7.31-0.62-10.36-0.69
			c-8.89-0.17-16.65,3.29-24.89,6.97c-4.38,1.96-8.91,3.99-13.58,5.38c-9,2.68-17.94,3.31-26.33,3.73
			c-10.36,0.48-14.35,11.27-14.62,21.2c-0.06,2.1-0.31,4.19-0.54,6.22l-0.14,1.17c-0.31,2.7-0.71,5.02-1.23,7.09
			c-1.3,5.15-4.17,8.49-8.76,10.2c-1.16,0.43-2.43,0.77-3.88,1.02c-0.86,0.15-1.77,0.28-2.78,0.37l-0.06,0.01l-0.06-0.01
			C66.27,77.41,65.29,77.36,64.3,77.36z"/>
	</g>
	<g>
		<linearGradient id="SVGID_5_" gradientUnits="userSpaceOnUse" x1="155.1556" y1="286.05" x2="155.1556" y2="16.9009">
			<stop  offset="0" style="stop-color:#FF7CAE"/>
			<stop  offset="0.349" style="stop-color:#B50A94"/>
			<stop  offset="0.6755" style="stop-color:#4D0672"/>
			<stop  offset="1" style="stop-color:#5861D6"/>
		</linearGradient>
		<path class="st4" d="M145.2,286.05c-2.23,0-4.25-0.05-6.16-0.14c-10.61-0.52-21.19-2.11-31.42-4.73
			c-24.59-6.3-45.12-17.3-59.38-31.82c-16.17-16.4-26.05-39.92-29.36-69.93c-0.51-4.66-0.82-8.99-0.93-13.24
			c-0.02-0.75-0.03-1.51-0.04-2.26c-0.01-2.01,0.07-4.06,0.14-6.04c0.05-1.4,0.11-2.81,0.13-4.22c0.18-10.92,3.54-17.37,9.98-19.18
			c8.49-2.39,14.89-7.07,18.48-13.54c3.72-6.69,4.33-14.91,1.77-23.78c-2-6.89,0.58-12.47,7.25-15.7c4.18-2.03,9.8-2.96,15.08-2.51
			c0.92-0.1,1.76-0.22,2.54-0.36c1.33-0.24,2.49-0.55,3.54-0.95c4.1-1.55,6.56-4.43,7.74-9.06c0.51-1.97,0.9-4.17,1.21-6.72
			l0.14-1.13c0.24-1.95,0.49-3.96,0.56-5.94c0.35-10.21,4.61-21.34,15.52-21.92c8.05-0.45,16.63-1.11,25.3-3.73
			c4.45-1.35,8.81-3.31,13.03-5.21c7.8-3.51,15.85-7.15,24.8-7.02c2.99,0.03,6.26,0.2,10.29,0.53c8.14,0.67,15,1.83,20.97,3.55
			c15.18,4.33,29.86,10.85,44.89,19.93c2.34,1.41,4.55,3.04,6.69,4.62l0.56,0.41c5.87,4.32,11.52,9.24,16.78,14.62
			c1.51,1.54,2.87,3,4.17,4.47c0.71,0.8,1.41,1.61,2.1,2.43l0.31,0.36c0.45,0.53,0.9,1.06,1.31,1.61
			c15.17,20.49,21.68,48.77,18.34,79.63c-0.36,8.51-1.52,17.08-3.44,25.41c-4.12,18.12-11.76,35.1-22.7,50.49
			C239,261.9,196.24,284.7,151,285.96C148.9,286.02,146.99,286.05,145.2,286.05z M68.09,80.17c-4.25,0-8.54,0.89-11.84,2.49
			c-4.26,2.06-8.86,6.19-6.55,14.13c2.67,9.21,2.02,17.78-1.88,24.79c-3.77,6.79-10.44,11.69-19.29,14.17
			c-5.89,1.66-8.84,7.52-9.01,17.92c-0.02,1.42-0.08,2.84-0.13,4.25c-0.07,1.97-0.15,4-0.14,5.98c0.01,0.75,0.02,1.49,0.04,2.24
			c0.11,4.21,0.41,8.51,0.92,13.13c3.27,29.7,13.02,52.96,28.98,69.14c14.09,14.35,34.41,25.23,58.77,31.47
			c10.15,2.6,20.63,4.18,31.16,4.69c3.4,0.16,7.16,0.18,11.85,0.05c44.83-1.25,87.2-23.84,113.35-60.43
			c10.85-15.24,18.41-32.06,22.49-50.01c1.91-8.26,3.06-16.74,3.42-25.21c3.31-30.57-3.11-58.52-18.08-78.74
			c-0.39-0.53-0.82-1.04-1.25-1.54l-0.31-0.37c-0.68-0.81-1.37-1.61-2.08-2.4c-1.29-1.45-2.64-2.89-4.13-4.42
			c-5.21-5.34-10.8-10.21-16.62-14.48l-0.56-0.42c-2.12-1.56-4.3-3.17-6.59-4.55c-14.93-9.02-29.51-15.5-44.57-19.79
			c-5.89-1.7-12.66-2.84-20.72-3.5c-4-0.33-7.24-0.49-10.2-0.52h0c-8.65-0.11-16.58,3.45-24.24,6.9c-4.26,1.91-8.66,3.89-13.19,5.26
			c-8.81,2.66-17.48,3.33-25.61,3.79C89.46,34.86,87.96,50.16,87.8,54.83c-0.07,2.04-0.32,4.09-0.57,6.06l-0.14,1.13
			c-0.31,2.61-0.72,4.87-1.24,6.9c-1.29,5.01-4.09,8.27-8.56,9.97c-1.13,0.43-2.36,0.76-3.77,1.02c-0.83,0.15-1.72,0.28-2.7,0.38
			l-0.06,0.01l-0.06-0.01C69.83,80.21,68.96,80.17,68.09,80.17z"/>
	</g>
	<g>
		<linearGradient id="SVGID_6_" gradientUnits="userSpaceOnUse" x1="156.5237" y1="282.556" x2="156.5237" y2="20.9518">
			<stop  offset="0" style="stop-color:#FF7CAE"/>
			<stop  offset="0.349" style="stop-color:#B50A94"/>
			<stop  offset="0.6755" style="stop-color:#4D0672"/>
			<stop  offset="1" style="stop-color:#5861D6"/>
		</linearGradient>
		<path class="st5" d="M143.94,282.56c-1.47,0-2.96-0.02-4.46-0.08c-10.42-0.41-20.82-1.83-30.91-4.24
			c-25.13-5.98-44.85-16.05-58.6-29.92c-15.49-15.53-24.34-37.98-27.04-68.61c-0.41-4.63-0.62-8.86-0.66-12.95c0-0.74,0-1.47,0-2.21
			c0.02-1.89,0.13-3.8,0.23-5.66c0.08-1.45,0.16-2.91,0.21-4.37c0.32-10.76,3.53-16.87,9.83-18.67c16.9-4.84,24.7-19.08,19.86-36.28
			c-1.88-6.7,0.65-12.14,7.14-15.31c4.05-1.99,9.52-2.95,14.64-2.56c0.91-0.1,1.71-0.23,2.46-0.37c1.29-0.24,2.42-0.55,3.44-0.94
			c3.97-1.53,6.36-4.33,7.53-8.8c0.5-1.92,0.9-4.06,1.21-6.53l0.14-1.11c0.25-1.89,0.5-3.84,0.58-5.76
			c0.2-4.81,1.87-20.57,15.2-21.39c7.44-0.47,16.09-1.18,24.57-3.79c4.32-1.33,8.56-3.22,12.66-5.06c7.58-3.39,15.43-6.9,24.13-6.99
			l0,0c3.21-0.03,6.38,0.13,10.13,0.37c8.21,0.53,14.98,1.57,20.68,3.18c14.6,4.07,29.12,10.24,44.41,18.87
			c2.18,1.23,4.23,2.68,6.22,4.08l0.98,0.69c5.82,4.07,11.44,8.75,16.71,13.9c1.52,1.48,2.88,2.88,4.17,4.26
			c0.71,0.77,1.42,1.54,2.11,2.33l0.33,0.38c0.43,0.49,0.88,1,1.29,1.54c14.75,19.55,20.54,47.34,16.29,78.26
			c-0.44,8.15-1.66,16.48-3.64,24.7c-4.26,17.71-11.86,34.24-22.58,49.12c-25.99,35.87-67.85,58.23-111.96,59.8
			C149.01,282.48,146.52,282.56,143.94,282.56z M71.89,82.97c-4.22,0-8.48,0.89-11.75,2.5c-4.12,2.02-8.58,6.04-6.42,13.72
			c5.06,17.99-3.1,32.9-20.79,37.96c-5.65,1.62-8.54,7.31-8.84,17.4c-0.04,1.47-0.13,2.95-0.21,4.41c-0.1,1.84-0.21,3.74-0.23,5.6
			c-0.01,0.73-0.01,1.46,0,2.19c0.03,4.05,0.25,8.25,0.65,12.84c2.68,30.3,11.39,52.47,26.65,67.76
			c13.58,13.69,33.07,23.63,57.95,29.56c10.01,2.38,20.32,3.79,30.65,4.2c4.08,0.16,8.18,0.05,11.65-0.07
			c43.7-1.56,85.16-23.7,110.91-59.23c10.62-14.73,18.14-31.1,22.36-48.64c1.96-8.14,3.17-16.39,3.61-24.51
			c4.2-30.61-1.49-58.04-16.03-77.31c-0.37-0.5-0.79-0.96-1.22-1.45l-0.34-0.38c-0.68-0.77-1.38-1.54-2.08-2.3
			c-1.27-1.37-2.62-2.75-4.13-4.22c-5.22-5.1-10.78-9.73-16.53-13.75l-0.98-0.69c-1.96-1.38-3.99-2.81-6.11-4
			c-15.19-8.57-29.61-14.71-44.1-18.74c-5.62-1.59-12.29-2.61-20.4-3.14c-3.73-0.24-6.86-0.4-10.03-0.36l0,0
			c-8.42,0.08-16.13,3.53-23.58,6.87c-4.14,1.85-8.42,3.77-12.82,5.12c-8.62,2.65-17.36,3.37-24.88,3.84
			C92.63,38.9,91.08,53.71,90.9,58.23c-0.08,1.98-0.34,3.96-0.59,5.88l-0.14,1.11c-0.32,2.53-0.73,4.72-1.24,6.71
			c-1.27,4.87-4.01,8.05-8.36,9.73c-1.1,0.42-2.3,0.75-3.67,1.01c-0.8,0.15-1.66,0.28-2.62,0.39l-0.07,0.01l-0.07,0
			C73.4,83,72.64,82.97,71.89,82.97z"/>
	</g>
	<g>
		<linearGradient id="SVGID_7_" gradientUnits="userSpaceOnUse" x1="157.9274" y1="279.0793" x2="157.9274" y2="24.9974">
			<stop  offset="0" style="stop-color:#FF7CAE"/>
			<stop  offset="0.349" style="stop-color:#B50A94"/>
			<stop  offset="0.6755" style="stop-color:#4D0672"/>
			<stop  offset="1" style="stop-color:#5861D6"/>
		</linearGradient>
		<path class="st6" d="M142.85,279.08c-0.98,0-1.96-0.01-2.93-0.04c-10.22-0.3-20.45-1.56-30.4-3.74
			c-25.3-5.55-44.76-14.98-57.83-28.02C37.08,232.79,28.99,210.78,26.97,180c-0.3-4.61-0.43-8.75-0.39-12.66
			c0.01-0.72,0.02-1.44,0.05-2.17c0.05-1.77,0.19-3.57,0.32-5.3c0.11-1.49,0.22-2.99,0.29-4.5c0.45-10.45,3.62-16.39,9.68-18.16
			c16.35-4.77,23.99-18.61,19.46-35.24c-1.77-6.51,0.72-11.81,7.02-14.93c3.98-1.98,9.16-2.92,14.21-2.6
			c0.83-0.1,1.63-0.23,2.38-0.38c1.26-0.25,2.35-0.56,3.32-0.94c3.84-1.51,6.16-4.23,7.32-8.55c0.5-1.87,0.9-3.95,1.21-6.34
			l0.15-1.1c0.25-1.83,0.51-3.71,0.6-5.57c0.22-4.66,1.95-19.95,14.88-20.85c7.2-0.5,15.56-1.26,23.84-3.84
			c4.17-1.3,8.28-3.16,12.25-4.96c7.39-3.35,15.02-6.8,23.51-6.9l0,0c3.03-0.04,6.28,0.03,9.96,0.21c8.38,0.39,14.86,1.28,20.4,2.81
			c14.16,3.85,28.12,9.51,43.92,17.81c2.08,1.09,4.03,2.4,5.91,3.67l1.24,0.83c5.75,3.82,11.35,8.25,16.63,13.17
			c1.55,1.45,2.92,2.77,4.17,4.06c0.72,0.73,1.42,1.48,2.11,2.23l0.36,0.38c0.43,0.46,0.88,0.94,1.28,1.46
			c14.35,18.65,19.41,45.95,14.25,76.89c-0.52,7.88-1.81,15.97-3.84,23.99c-4.34,17.23-11.9,33.29-22.46,47.75
			c-25.97,35.34-65.89,56.7-109.53,58.6C148.83,278.96,145.85,279.08,142.85,279.08z M75.7,85.78c-4.18,0-8.43,0.9-11.67,2.52
			c-3.99,1.98-8.31,5.89-6.29,13.31c4.75,17.44-3.27,31.95-20.42,36.96c-5.49,1.6-8.24,6.96-8.67,16.87
			c-0.07,1.52-0.18,3.04-0.29,4.54c-0.13,1.72-0.26,3.5-0.32,5.24c-0.02,0.72-0.04,1.43-0.05,2.14c-0.04,3.87,0.08,7.98,0.38,12.55
			c1.99,30.43,9.95,52.14,24.31,66.38c12.88,12.85,32.1,22.15,57.14,27.64c9.86,2.16,20,3.41,30.14,3.71
			c3.92,0.11,7.97-0.04,11.46-0.19c43.21-1.88,82.74-23.03,108.46-58.03c10.45-14.31,17.93-30.21,22.23-47.26
			c2-7.94,3.28-15.95,3.8-23.81c5.1-30.61,0.14-57.53-13.97-75.87c-0.36-0.47-0.77-0.9-1.19-1.36l-0.36-0.39
			c-0.68-0.74-1.38-1.47-2.08-2.2c-1.24-1.27-2.59-2.58-4.12-4.01c-5.23-4.87-10.76-9.25-16.45-13.02l-1.24-0.83
			c-1.85-1.25-3.77-2.54-5.78-3.59c-15.72-8.25-29.58-13.87-43.64-17.69c-5.44-1.5-11.82-2.38-20.09-2.77
			c-3.65-0.17-6.88-0.24-9.88-0.2l0,0c-8.19,0.1-15.69,3.49-22.95,6.78c-4.01,1.82-8.16,3.69-12.41,5.02
			c-8.42,2.63-16.88,3.39-24.16,3.9C95.81,42.93,94.21,57.26,94,61.63c-0.09,1.92-0.35,3.84-0.61,5.7l-0.15,1.09
			c-0.32,2.45-0.73,4.58-1.25,6.51c-1.26,4.73-3.93,7.84-8.16,9.5c-1.05,0.41-2.22,0.74-3.56,1.01c-0.8,0.16-1.66,0.29-2.55,0.4
			l-0.07,0.01l-0.07,0C76.96,85.8,76.33,85.78,75.7,85.78z"/>
	</g>
	<g>
		<linearGradient id="SVGID_8_" gradientUnits="userSpaceOnUse" x1="159.3582" y1="275.6187" x2="159.3582" y2="29.0126">
			<stop  offset="0" style="stop-color:#FF7CAE"/>
			<stop  offset="0.349" style="stop-color:#B50A94"/>
			<stop  offset="0.6755" style="stop-color:#4D0672"/>
			<stop  offset="1" style="stop-color:#5861D6"/>
		</linearGradient>
		<path class="st7" d="M142.05,275.62c-0.56,0-1.13,0-1.69-0.02c-10.03-0.19-20.08-1.28-29.88-3.24
			c-25.46-5.1-44.65-13.88-57.05-26.12c-18.36-17.99-21.58-46.26-22.41-65.97c-0.2-4.76-0.24-8.69-0.11-12.37
			c0.02-0.7,0.05-1.41,0.09-2.12c0.08-1.66,0.25-3.35,0.4-4.98c0.14-1.5,0.29-3.06,0.38-4.59c0.37-6.47,1.76-15.33,9.52-17.65
			c16.05-4.78,23.36-17.89,19.07-34.21c-1.66-6.31,0.79-11.48,6.91-14.55c3.85-1.95,8.87-2.91,13.78-2.64
			c0.8-0.11,1.58-0.24,2.3-0.39c1.23-0.25,2.28-0.56,3.22-0.93c3.71-1.49,5.97-4.12,7.11-8.3c0.5-1.83,0.89-3.84,1.22-6.14
			l0.15-1.05c0.26-1.77,0.52-3.61,0.62-5.41c0.25-4.52,2.04-19.33,14.55-20.32c8.62-0.67,15.85-1.59,23.11-3.89
			c4.03-1.28,8.01-3.09,11.86-4.84c7.18-3.27,14.61-6.65,22.86-6.84l0,0c3.05-0.07,6.25-0.06,9.79,0.04
			c8.37,0.24,14.76,1.01,20.11,2.44c13.59,3.63,27.39,8.95,43.44,16.74c1.99,0.97,3.86,2.16,5.67,3.32
			c0.48,0.31,0.95,0.61,1.43,0.91c5.68,3.57,11.25,7.75,16.56,12.44c1.56,1.38,2.93,2.64,4.17,3.86c0.72,0.7,1.43,1.41,2.12,2.13
			l0.37,0.38c0.43,0.44,0.88,0.89,1.28,1.4c13.97,17.78,18.3,44.6,12.21,75.51c-0.6,7.6-1.96,15.46-4.03,23.28
			c-4.43,16.74-11.94,32.34-22.34,46.38c-25.56,34.28-64.6,55.2-107.1,57.41C148.29,275.47,145.15,275.62,142.05,275.62z
			 M79.5,88.58c-4.14,0-8.37,0.91-11.57,2.53c-3.85,1.93-8.04,5.74-6.16,12.89c4.44,16.89-3.43,31-20.05,35.95
			c-6.89,2.05-8.15,10.31-8.5,16.35c-0.09,1.56-0.24,3.13-0.38,4.65c-0.15,1.61-0.31,3.29-0.39,4.91c-0.04,0.7-0.06,1.39-0.09,2.09
			c-0.12,3.65-0.08,7.54,0.11,12.26c1.29,30.93,8.28,51.58,21.98,65c12.19,12.04,31.14,20.69,56.32,25.73
			c9.72,1.94,19.69,3.02,29.63,3.21c3.6,0.08,7.23-0.1,11.26-0.31c42.07-2.18,80.71-22.9,106.02-56.83
			c10.28-13.89,17.72-29.33,22.1-45.89c2.04-7.73,3.39-15.5,4-23.1c6.02-30.58,1.79-56.98-11.92-74.43
			c-0.35-0.44-0.75-0.85-1.17-1.28l-0.38-0.39c-0.68-0.71-1.38-1.4-2.09-2.1c-1.23-1.2-2.58-2.44-4.12-3.81
			c-5.24-4.63-10.75-8.77-16.37-12.29c-0.48-0.3-0.96-0.61-1.44-0.92c-1.77-1.13-3.6-2.3-5.52-3.23
			c-15.97-7.75-29.69-13.04-43.18-16.65c-5.24-1.4-11.52-2.16-19.78-2.4c-3.51-0.1-6.69-0.11-9.72-0.04l0,0
			c-7.96,0.19-15.25,3.51-22.3,6.71c-3.88,1.77-7.9,3.59-12.02,4.9c-7.39,2.35-14.72,3.28-23.43,3.96
			C98.98,46.96,97.33,60.8,97.1,65.03c-0.1,1.87-0.37,3.73-0.63,5.54l-0.15,1.05c-0.33,2.37-0.74,4.44-1.25,6.32
			c-1.25,4.59-3.85,7.62-7.96,9.26c-1.02,0.4-2.15,0.73-3.46,1c-0.78,0.16-1.61,0.3-2.47,0.41l-0.07,0.01l-0.07,0
			C80.53,88.59,80.01,88.58,79.5,88.58z"/>
	</g>
	<g>
		<linearGradient id="SVGID_9_" gradientUnits="userSpaceOnUse" x1="160.8091" y1="272.1695" x2="160.8091" y2="32.9628">
			<stop  offset="0" style="stop-color:#FF7CAE"/>
			<stop  offset="0.349" style="stop-color:#B50A94"/>
			<stop  offset="0.6755" style="stop-color:#4D0672"/>
			<stop  offset="1" style="stop-color:#5861D6"/>
		</linearGradient>
		<path class="st8" d="M141.45,272.17c-0.21,0-0.43,0-0.64,0c-9.83-0.08-19.71-1-29.37-2.74c-25.89-4.67-44.3-12.59-56.27-24.22
			c-17.12-16.62-19.73-43.28-20.09-64.65c-0.08-4.83-0.03-8.55,0.16-12.08c0.04-0.69,0.08-1.38,0.13-2.06
			c0.11-1.57,0.3-3.15,0.48-4.69c0.18-1.52,0.36-3.1,0.47-4.66c0.45-6.27,1.92-14.86,9.37-17.13c15.5-4.72,22.66-17.43,18.68-33.17
			c-1.55-6.12,0.87-11.15,6.79-14.16c3.72-1.91,8.59-2.89,13.34-2.69c0.76-0.11,1.5-0.24,2.22-0.39c1.2-0.26,2.22-0.56,3.11-0.92
			c3.58-1.45,5.77-4.01,6.9-8.05c0.49-1.78,0.89-3.73,1.22-5.95l0.15-1.02c0.26-1.72,0.53-3.49,0.64-5.24
			c0.28-4.37,2.13-18.72,14.23-19.78c8.31-0.71,15.29-1.65,22.38-3.95c3.9-1.26,7.74-3.02,11.46-4.72
			c6.98-3.19,14.19-6.49,22.22-6.78l0,0c1.8-0.07,3.62-0.07,5.38-0.08c1.41,0,2.82-0.01,4.22-0.04c7.09-0.18,13.96,0.54,19.85,2.08
			c12.96,3.37,26.21,8.21,42.95,15.68c1.93,0.86,3.74,1.96,5.48,3.02c0.52,0.32,1.04,0.63,1.56,0.94
			c5.63,3.33,11.17,7.27,16.48,11.71c1.58,1.32,2.94,2.51,4.17,3.65c0.72,0.67,1.43,1.34,2.12,2.03l0.38,0.37
			c0.44,0.42,0.89,0.86,1.29,1.36c13.6,16.94,17.21,43.28,10.17,74.14c-0.69,7.33-2.11,14.96-4.23,22.56
			c-4.51,16.25-11.99,31.39-22.21,45.01c-25.16,33.22-63.3,53.71-104.66,56.21l-0.26,0.02
			C148.17,271.97,144.82,272.17,141.45,272.17z M83.26,91.37c-4.13,0-8.24,0.91-11.44,2.55c-3.71,1.89-7.77,5.59-6.03,12.48
			c4.13,16.34-3.6,30.05-19.68,34.95c-6.51,1.98-7.87,9.5-8.32,15.82c-0.12,1.59-0.3,3.18-0.48,4.72c-0.18,1.52-0.36,3.09-0.47,4.62
			c-0.05,0.68-0.09,1.36-0.13,2.04c-0.19,3.49-0.24,7.18-0.15,11.97c0.36,21.09,2.92,47.37,19.65,63.62
			c11.75,11.41,29.91,19.2,55.5,23.82c9.57,1.73,19.37,2.64,29.12,2.72c3.54,0.02,7.06-0.19,10.8-0.41l0.26-0.02
			c40.93-2.48,78.68-22.76,103.57-55.63c10.11-13.46,17.5-28.44,21.97-44.51c2.09-7.52,3.5-15.06,4.19-22.4
			c6.96-30.51,3.45-56.4-9.86-72.98c-0.34-0.42-0.74-0.81-1.16-1.22l-0.39-0.38c-0.68-0.67-1.38-1.34-2.09-1.99
			c-1.21-1.12-2.56-2.3-4.12-3.6c-5.25-4.39-10.73-8.28-16.29-11.57c-0.53-0.31-1.05-0.63-1.58-0.95c-1.71-1.04-3.47-2.11-5.32-2.93
			c-16.67-7.44-29.84-12.25-42.72-15.6c-5.76-1.5-12.49-2.21-19.44-2.03c-1.41,0.03-2.83,0.04-4.25,0.04
			c-1.75,0.01-3.55,0.01-5.33,0.08l0,0c-7.74,0.28-14.81,3.52-21.66,6.65c-3.76,1.72-7.65,3.5-11.62,4.78
			c-7.23,2.34-14.3,3.29-22.71,4.01c-10.93,0.96-12.62,14.32-12.88,18.4c-0.12,1.81-0.39,3.62-0.65,5.37l-0.15,1.02
			c-0.33,2.28-0.75,4.29-1.26,6.13c-1.24,4.46-3.78,7.41-7.76,9.03c-0.97,0.39-2.07,0.72-3.35,1c-0.77,0.17-1.58,0.31-2.39,0.42
			l-0.07,0.01l-0.07,0C84.08,91.38,83.67,91.37,83.26,91.37z"/>
	</g>
	<g>
		<linearGradient id="SVGID_10_" gradientUnits="userSpaceOnUse" x1="162.2494" y1="268.7329" x2="162.2494" y2="36.7903">
			<stop  offset="0" style="stop-color:#FF7CAE"/>
			<stop  offset="0.349" style="stop-color:#B50A94"/>
			<stop  offset="0.6755" style="stop-color:#4D0672"/>
			<stop  offset="1" style="stop-color:#5861D6"/>
		</linearGradient>
		<path class="st9" d="M140.66,268.73c-9.45,0-18.95-0.76-28.26-2.25c-26.38-4.22-44.01-11.31-55.49-22.31
			c-16.03-15.36-17.98-40.64-17.78-63.34c0.03-3.45,0.11-7.56,0.43-11.78c0.05-0.67,0.11-1.34,0.17-2.02
			c0.14-1.48,0.35-2.98,0.55-4.42c0.21-1.54,0.43-3.12,0.57-4.69c0.58-6.58,2.15-14.42,9.21-16.62C65,136.65,72,124.34,68.34,109.16
			c-1.43-5.92,0.94-10.82,6.68-13.77c3.6-1.87,8.3-2.86,12.91-2.73c0.73-0.11,1.45-0.25,2.14-0.4c1.17-0.26,2.15-0.56,3-0.91
			c3.45-1.43,5.58-3.91,6.68-7.81c0.49-1.74,0.89-3.62,1.22-5.76l0.16-0.99c0.27-1.66,0.54-3.38,0.66-5.07
			c0.31-4.22,2.21-18.1,13.9-19.24c8-0.75,14.74-1.72,21.66-4c3.76-1.24,7.48-2.95,11.07-4.6c6.77-3.11,13.77-6.33,21.57-6.72l0,0
			c1.62-0.08,3.25-0.11,4.86-0.15c1.53-0.03,3.05-0.06,4.56-0.13c7.05-0.33,13.82,0.25,19.56,1.7c15.22,3.85,29.41,9.3,42.47,14.62
			c1.89,0.77,3.64,1.77,5.34,2.75c0.55,0.32,1.1,0.63,1.65,0.94c5.64,3.12,11.01,6.71,16.41,10.98c1.63,1.29,2.96,2.38,4.17,3.45
			c0.73,0.64,1.44,1.28,2.13,1.93l0.39,0.35c0.44,0.4,0.9,0.82,1.29,1.3c13.25,16.14,16.13,41.99,8.12,72.78
			c-0.77,7.06-2.26,14.45-4.42,21.85c-4.63,15.86-12.06,30.55-22.09,43.64c-24.63,32.15-61.89,52.2-102.23,55.01l-1.05,0.07
			c-3.42,0.24-6.65,0.47-9.92,0.48C141.05,268.73,140.86,268.73,140.66,268.73z M87.09,94.16c-4.1,0-8.2,0.92-11.38,2.57
			c-3.58,1.84-7.5,5.43-5.9,12.07c3.88,16.03-3.52,29.03-19.31,33.94c-6.2,1.93-7.61,9.19-8.15,15.3c-0.14,1.61-0.36,3.21-0.58,4.77
			c-0.2,1.43-0.4,2.91-0.54,4.36c-0.06,0.66-0.12,1.33-0.17,1.99c-0.32,4.18-0.39,8.25-0.42,11.68c-0.2,22.38,1.7,47.27,17.31,62.23
			c11.09,10.63,28.98,17.8,54.68,21.91c9.42,1.51,19.02,2.28,28.61,2.22c3.22-0.01,6.42-0.24,9.81-0.48l1.05-0.07
			c39.91-2.78,76.77-22.62,101.13-54.42c9.91-12.94,17.26-27.46,21.84-43.14c2.13-7.31,3.61-14.62,4.39-21.7
			c7.9-30.42,5.12-55.79-7.81-71.54c-0.33-0.4-0.73-0.76-1.14-1.14l-0.4-0.37c-0.68-0.64-1.38-1.27-2.09-1.89
			c-1.19-1.05-2.5-2.13-4.11-3.4c-5.34-4.21-10.64-7.76-16.2-10.84c-0.56-0.31-1.12-0.63-1.67-0.95c-1.66-0.95-3.37-1.93-5.16-2.66
			c-13.01-5.3-27.13-10.73-42.27-14.55c-5.6-1.42-12.21-1.99-19.12-1.66c-1.53,0.07-3.06,0.1-4.61,0.14
			c-1.6,0.03-3.21,0.07-4.82,0.15l0,0c-7.51,0.38-14.37,3.53-21.01,6.58c-3.64,1.67-7.39,3.4-11.23,4.66
			c-7.05,2.32-13.89,3.31-21.98,4.07c-10.51,1.03-12.25,13.91-12.53,17.84c-0.13,1.76-0.41,3.51-0.68,5.2l-0.16,0.98
			c-0.34,2.2-0.75,4.14-1.26,5.94c-1.23,4.32-3.7,7.19-7.56,8.79c-0.93,0.39-1.99,0.71-3.25,0.99c-0.74,0.17-1.52,0.31-2.31,0.43
			l-0.07,0.01l-0.07,0C87.66,94.17,87.37,94.16,87.09,94.16z"/>
	</g>
	<g>
		<linearGradient id="SVGID_11_" gradientUnits="userSpaceOnUse" x1="163.6155" y1="265.3159" x2="163.6155" y2="40.6949">
			<stop  offset="0" style="stop-color:#FF7CAE"/>
			<stop  offset="0.349" style="stop-color:#B50A94"/>
			<stop  offset="0.6755" style="stop-color:#4D0672"/>
			<stop  offset="1" style="stop-color:#5861D6"/>
		</linearGradient>
		<path class="st10" d="M138.92,265.32c-8.54,0-17.12-0.59-25.57-1.77c-16.67-2.32-40.47-6.95-54.72-20.41
			c-15.79-14.92-16.26-39.84-15.46-62.03c0.13-3.64,0.31-7.55,0.7-11.49c0.06-0.66,0.13-1.31,0.21-1.97
			c0.16-1.4,0.39-2.81,0.61-4.18c0.25-1.54,0.51-3.13,0.67-4.71c0.67-6.37,2.3-13.95,9.06-16.1c14.4-4.58,21.25-16.5,17.89-31.11
			c-1.32-5.73,1.01-10.48,6.56-13.39c3.47-1.83,8-2.84,12.47-2.77c0.71-0.12,1.4-0.25,2.06-0.41c1.13-0.27,2.08-0.56,2.89-0.91
			c3.33-1.4,5.38-3.81,6.47-7.56c0.49-1.69,0.89-3.51,1.23-5.56l0.16-0.96c0.27-1.6,0.55-3.26,0.68-4.9
			c0.33-4.09,2.3-17.51,13.58-18.7c7.74-0.82,14.25-1.82,20.93-4.05c3.59-1.21,7.17-2.86,10.62-4.46
			c6.58-3.04,13.39-6.19,20.99-6.68h0c3.33-0.21,6.37-0.36,9.29-0.45c5.73-0.17,13.09-0.17,19.25,1.34
			c14.3,3.5,27.47,8.21,41.98,13.55c1.84,0.68,3.56,1.6,5.21,2.49c0.58,0.31,1.15,0.62,1.73,0.92c5.58,2.88,10.92,6.23,16.33,10.25
			c1.65,1.22,2.98,2.25,4.17,3.24c0.73,0.6,1.44,1.21,2.13,1.83l0.39,0.34c0.45,0.38,0.91,0.78,1.31,1.26
			c12.9,15.35,15.06,40.69,6.1,71.35c-0.87,6.9-2.43,14.03-4.63,21.2c-4.72,15.38-12.11,29.61-21.97,42.27
			c-24.21,31.1-60.58,50.72-99.79,53.82l-1.66,0.13c-3.14,0.25-6.1,0.49-9.1,0.54C140.77,265.31,139.85,265.32,138.92,265.32z
			 M90.92,96.95c-4.07,0-8.17,0.94-11.31,2.6c-3.44,1.8-7.24,5.29-5.77,11.66c3.56,15.46-3.7,28.08-18.94,32.94
			c-5.86,1.87-7.33,8.52-7.98,14.78c-0.17,1.62-0.43,3.23-0.68,4.79c-0.22,1.35-0.44,2.75-0.6,4.11c-0.08,0.65-0.15,1.29-0.21,1.94
			c-0.39,3.9-0.56,7.78-0.69,11.39c-0.79,21.85-0.34,46.37,14.98,60.84c13.92,13.15,37.41,17.71,53.86,20
			c9.28,1.29,18.74,1.87,28.1,1.73c2.95-0.04,5.89-0.28,9-0.53l1.67-0.13c38.78-3.07,74.75-22.47,98.69-53.23
			c9.74-12.51,17.04-26.56,21.71-41.77c2.18-7.1,3.72-14.17,4.58-21l0.03-0.12c8.84-30.17,6.78-55.02-5.78-69.97
			c-0.32-0.38-0.71-0.72-1.13-1.08l-0.41-0.36c-0.68-0.6-1.38-1.2-2.09-1.79c-1.18-0.97-2.48-1.99-4.11-3.19
			c-5.34-3.96-10.62-7.27-16.12-10.11c-0.59-0.3-1.17-0.62-1.75-0.93c-1.61-0.87-3.28-1.77-5.01-2.41
			c-14.46-5.33-27.59-10.02-41.81-13.5c-5.97-1.46-13.2-1.46-18.83-1.29c-2.9,0.09-5.92,0.23-9.23,0.44h0
			c-7.3,0.47-13.98,3.55-20.43,6.54c-3.49,1.61-7.1,3.28-10.78,4.52c-6.81,2.27-13.42,3.29-21.26,4.12
			c-9.82,1.04-11.8,12.43-12.19,17.28c-0.14,1.7-0.42,3.39-0.7,5.03l-0.16,0.96c-0.34,2.11-0.76,3.99-1.27,5.75
			c-1.21,4.18-3.62,6.98-7.36,8.56c-0.9,0.38-1.93,0.7-3.14,0.99c-0.72,0.17-1.47,0.32-2.23,0.44l-0.07,0.01l-0.07,0
			C91.24,96.95,91.08,96.95,90.92,96.95z"/>
	</g>
	<g>
		<linearGradient id="SVGID_12_" gradientUnits="userSpaceOnUse" x1="164.915" y1="261.9298" x2="164.915" y2="44.4626">
			<stop  offset="0" style="stop-color:#FF7CAE"/>
			<stop  offset="0.349" style="stop-color:#B50A94"/>
			<stop  offset="0.6755" style="stop-color:#4D0672"/>
			<stop  offset="1" style="stop-color:#5861D6"/>
		</linearGradient>
		<path class="st11" d="M136.91,261.93c-7.54,0-15.12-0.44-22.6-1.32c-18.14-2.13-40.66-6.15-53.94-18.51
			c-14.85-13.82-14.64-37.57-13.15-60.72c0.23-3.56,0.49-7.36,0.97-11.2c0.08-0.64,0.16-1.28,0.25-1.92
			c0.19-1.33,0.44-2.66,0.68-3.96c0.29-1.54,0.58-3.12,0.78-4.69c0.8-6.53,2.49-13.49,8.9-15.58c13.85-4.52,20.55-16.04,17.5-30.08
			c-1.2-5.52,1.09-10.13,6.44-13c3.35-1.79,7.73-2.82,12.03-2.82c0,0,0.01,0,0.01,0c0.67-0.12,1.33-0.26,1.98-0.42
			c1.11-0.27,2-0.56,2.79-0.9c3.2-1.38,5.19-3.7,6.26-7.31c0.49-1.64,0.89-3.4,1.23-5.37l0.17-0.95c0.27-1.54,0.56-3.14,0.7-4.71
			c0.46-5.05,2.68-16.93,13.25-18.16c7.48-0.87,13.77-1.9,20.2-4.1c3.47-1.19,6.92-2.8,10.26-4.35c6.37-2.96,12.96-6.03,20.31-6.61
			l0,0c3.56-0.28,6.46-0.47,9.12-0.61c6.07-0.31,13.08-0.43,18.97,0.97c12.85,3.04,24.79,6.98,38.62,11.54l2.87,0.95
			c1.81,0.6,3.49,1.45,5.12,2.27c0.59,0.3,1.18,0.6,1.77,0.88c5.53,2.65,10.85,5.76,16.26,9.51c1.67,1.16,3,2.13,4.17,3.04
			c0.73,0.57,1.45,1.14,2.14,1.73l0.39,0.32c0.45,0.36,0.92,0.74,1.32,1.21c12.57,14.6,14.01,39.45,4.06,69.98
			c-0.96,6.64-2.58,13.53-4.83,20.49c-4.81,14.9-12.16,28.66-21.84,40.9c-23.79,30.05-59.27,49.23-97.35,52.62l-2.08,0.19
			c-2.92,0.27-5.68,0.53-8.48,0.6C140.4,261.91,138.66,261.93,136.91,261.93z M94.77,99.73c-4.04,0-8.15,0.96-11.28,2.63
			c-3.31,1.77-6.97,5.15-5.64,11.25c3.24,14.9-3.87,27.13-18.56,31.93c-5.56,1.82-7.07,8.23-7.81,14.26
			c-0.2,1.62-0.5,3.23-0.79,4.79c-0.24,1.28-0.49,2.6-0.67,3.89c-0.09,0.63-0.17,1.26-0.25,1.89c-0.47,3.79-0.73,7.57-0.96,11.11
			c-1.47,22.76-1.7,46.11,12.64,59.45c12.94,12.04,35.14,15.99,53.04,18.09c9.13,1.07,18.42,1.48,27.59,1.24
			c2.75-0.08,5.48-0.33,8.38-0.6l2.09-0.19c37.65-3.35,72.73-22.32,96.25-52.02c9.56-12.08,16.82-25.67,21.58-40.4
			c2.23-6.9,3.83-13.72,4.78-20.3l0.03-0.13c9.8-30.01,8.47-54.34-3.73-68.51c-0.31-0.36-0.7-0.68-1.11-1.01l-0.42-0.34
			c-0.68-0.57-1.38-1.13-2.09-1.69c-1.15-0.9-2.45-1.85-4.1-2.99c-5.34-3.71-10.59-6.78-16.04-9.39c-0.6-0.29-1.2-0.59-1.8-0.89
			c-1.58-0.79-3.21-1.62-4.9-2.18l-2.87-0.95c-13.79-4.55-25.7-8.48-38.48-11.51c-5.73-1.36-12.9-1.21-18.52-0.93
			c-2.64,0.13-5.53,0.32-9.07,0.6l0,0c-7.06,0.55-13.52,3.56-19.76,6.46c-3.37,1.57-6.86,3.19-10.41,4.41
			c-6.56,2.24-12.95,3.29-20.53,4.18c-9.41,1.1-11.42,12.06-11.85,16.72c-0.15,1.64-0.44,3.27-0.72,4.84l-0.17,0.94
			c-0.35,2.03-0.76,3.85-1.27,5.55c-1.2,4.04-3.54,6.76-7.16,8.32c-0.87,0.38-1.83,0.69-3.03,0.98c-0.7,0.17-1.42,0.32-2.16,0.45
			l-0.14,0.01C94.82,99.73,94.8,99.73,94.77,99.73z"/>
	</g>
	<g>
		<linearGradient id="SVGID_13_" gradientUnits="userSpaceOnUse" x1="166.13" y1="258.5828" x2="166.13" y2="48.1949">
			<stop  offset="0" style="stop-color:#FF7CAE"/>
			<stop  offset="0.349" style="stop-color:#B50A94"/>
			<stop  offset="0.6755" style="stop-color:#4D0672"/>
			<stop  offset="1" style="stop-color:#5861D6"/>
		</linearGradient>
		<path class="st12" d="M134.53,258.58c-6.42,0-12.87-0.3-19.26-0.91c-19.32-1.83-40.75-5.24-53.17-16.6
			c-13.98-12.8-13.18-34.48-10.83-59.41c0.36-3.87,0.71-7.37,1.24-10.91c0.09-0.62,0.19-1.25,0.3-1.87
			c0.21-1.26,0.48-2.53,0.74-3.75c0.33-1.53,0.66-3.11,0.88-4.67c0.94-6.62,2.65-13.02,8.74-15.06
			c13.3-4.45,19.85-15.58,17.11-29.05c-1.08-5.32,1.16-9.8,6.33-12.61c3.23-1.76,7.45-2.8,11.6-2.86c0.65-0.12,1.28-0.27,1.9-0.42
			c1.07-0.28,1.92-0.56,2.68-0.89c3.07-1.36,5-3.6,6.06-7.06c0.48-1.57,0.9-3.32,1.23-5.18l0.17-0.9c0.28-1.49,0.57-3.03,0.72-4.55
			c0.5-4.86,2.75-16.32,12.92-17.62c5.81-0.74,12.58-1.74,19.47-4.16c3.34-1.17,6.67-2.73,9.9-4.24c6.16-2.88,12.52-5.87,19.63-6.53
			l0,0c3.18-0.3,6.04-0.56,8.95-0.77c6.06-0.43,13.02-0.7,18.68,0.6c10.33,2.36,19.87,5.18,30.9,8.46c3.25,0.96,6.6,1.95,10.09,2.97
			c1.78,0.52,3.43,1.29,5.03,2.04c0.6,0.28,1.21,0.57,1.81,0.83c5.47,2.41,10.77,5.28,16.19,8.78c1.73,1.12,3.02,1.99,4.18,2.84
			c0.74,0.54,1.45,1.08,2.15,1.63l0.41,0.32c0.45,0.34,0.92,0.7,1.32,1.16c12.25,13.87,12.97,38.24,2.02,68.61
			c-1.04,6.38-2.73,13.03-5.02,19.78c-4.91,14.42-12.21,27.72-21.72,39.52c-23.37,29.01-57.97,47.75-94.91,51.42
			c-0.82,0.08-1.63,0.17-2.44,0.25c-2.73,0.29-5.31,0.56-7.92,0.66C139.91,258.53,137.22,258.58,134.53,258.58z M173.04,50.94
			c-6.83,0.64-13.06,3.56-19.09,6.39c-3.26,1.53-6.63,3.1-10.05,4.3c-7.03,2.47-13.91,3.48-19.8,4.23
			c-9.01,1.16-11.05,11.69-11.51,16.17c-0.16,1.59-0.46,3.17-0.74,4.69l-0.17,0.89c-0.35,1.95-0.77,3.7-1.28,5.36
			c-1.19,3.9-3.46,6.54-6.96,8.08c-0.84,0.37-1.77,0.68-2.93,0.98c-0.68,0.17-1.37,0.33-2.08,0.46l-0.14,0.01
			c-3.91,0.05-7.89,1.02-10.91,2.67c-3.17,1.72-6.7,5-5.51,10.85c2.92,14.34-4.05,26.18-18.19,30.92
			c-5.25,1.76-6.78,7.65-7.65,13.75c-0.23,1.62-0.57,3.22-0.9,4.78c-0.26,1.21-0.52,2.46-0.73,3.68c-0.1,0.61-0.2,1.23-0.29,1.84
			c-0.52,3.5-0.86,6.97-1.23,10.82c-2.31,24.49-3.12,45.77,10.31,58.06c12.06,11.04,33.17,14.38,52.22,16.18
			c9,0.85,18.11,1.1,27.09,0.74c2.56-0.1,5.12-0.37,7.82-0.65c0.81-0.09,1.63-0.17,2.45-0.25c36.52-3.63,70.71-22.16,93.81-50.83
			c9.39-11.65,16.6-24.78,21.45-39.02c2.28-6.69,3.95-13.28,4.97-19.6l0.04-0.15c10.77-29.82,10.17-53.63-1.68-67.05
			c-0.3-0.34-0.68-0.63-1.09-0.94l-0.43-0.34c-0.68-0.53-1.38-1.06-2.09-1.59c-1.13-0.83-2.4-1.68-4.1-2.79
			c-5.35-3.45-10.57-6.29-15.96-8.66c-0.62-0.27-1.23-0.56-1.85-0.85c-1.54-0.72-3.14-1.47-4.79-1.95c-3.5-1.02-6.85-2.01-10.1-2.98
			c-11.01-3.26-20.52-6.08-30.8-8.43c-5.46-1.25-12.26-0.98-18.2-0.56C179.06,50.38,176.21,50.65,173.04,50.94L173.04,50.94z"/>
	</g>
	<g>
		<linearGradient id="SVGID_14_" gradientUnits="userSpaceOnUse" x1="167.2729" y1="255.2863" x2="167.2729" y2="51.8943">
			<stop  offset="0" style="stop-color:#FF7CAE"/>
			<stop  offset="0.349" style="stop-color:#B50A94"/>
			<stop  offset="0.6755" style="stop-color:#4D0672"/>
			<stop  offset="1" style="stop-color:#5861D6"/>
		</linearGradient>
		<path class="st13" d="M131.69,255.29c-5.15,0-10.31-0.18-15.45-0.55c-20.34-1.46-40.77-4.25-52.4-14.7
			c-14.2-12.76-11.18-36.86-8.52-58.11l0.04-0.35c0.42-3.35,0.86-6.82,1.46-10.26c0.11-0.61,0.22-1.21,0.34-1.82
			c0.23-1.2,0.52-2.4,0.8-3.56c0.36-1.51,0.74-3.08,0.99-4.63c0.7-4.29,1.99-12.27,8.58-14.54c12.75-4.38,19.16-15.12,16.72-28.02
			c-0.97-5.12,1.24-9.46,6.21-12.21c3.1-1.72,7.17-2.78,11.16-2.91c0.62-0.13,1.23-0.27,1.82-0.43c1.04-0.28,1.85-0.56,2.57-0.89
			c2.95-1.33,4.81-3.5,5.85-6.82c0.48-1.53,0.9-3.21,1.24-4.99l0.17-0.88c0.28-1.43,0.58-2.91,0.74-4.37
			c0.53-4.68,2.82-15.71,12.59-17.08c5.6-0.79,12.12-1.83,18.74-4.21c3.21-1.15,6.42-2.66,9.53-4.13
			c5.94-2.81,12.09-5.71,18.96-6.46l1.71-0.19c2.37-0.26,4.73-0.52,7.07-0.74c6.04-0.56,12.95-0.97,18.4,0.22
			c8.16,1.79,15.99,3.89,24.28,6.11c5.12,1.37,10.42,2.79,16.22,4.26c1.75,0.44,3.37,1.14,4.95,1.82c0.61,0.27,1.23,0.53,1.84,0.78
			c5.42,2.17,10.69,4.8,16.11,8.05c1.26,0.75,2.74,1.66,4.18,2.63c0.74,0.5,1.46,1.01,2.16,1.53l0.4,0.29
			c0.46,0.33,0.94,0.67,1.35,1.12c11.95,13.17,11.94,37.05-0.03,67.25c-1.13,6.2-2.84,12.44-5.22,19.08
			c-5,13.94-12.27,26.78-21.6,38.15c-22.95,27.97-56.66,46.27-92.48,50.23c-0.9,0.1-1.8,0.21-2.69,0.31
			c-2.57,0.31-5.01,0.59-7.47,0.72C139.27,255.19,135.48,255.29,131.69,255.29z M174.04,55.03c-6.59,0.73-12.61,3.57-18.43,6.31
			c-3.14,1.48-6.39,3.02-9.68,4.19c-6.77,2.43-13.4,3.49-19.07,4.29c-8.61,1.21-10.68,11.32-11.17,15.61
			c-0.17,1.53-0.47,3.04-0.76,4.51l-0.17,0.87c-0.35,1.84-0.78,3.58-1.28,5.17c-1.18,3.75-3.39,6.32-6.75,7.84
			c-0.8,0.36-1.7,0.67-2.82,0.98c-0.65,0.18-1.32,0.33-2,0.47l-0.14,0.02c-3.76,0.11-7.58,1.1-10.47,2.7
			c-3.04,1.68-6.44,4.86-5.38,10.44c2.61,13.77-4.22,25.23-17.81,29.91c-5.21,1.79-6.59,7.77-7.48,13.23
			c-0.26,1.61-0.65,3.21-1.02,4.75c-0.28,1.16-0.56,2.32-0.79,3.49c-0.12,0.6-0.23,1.19-0.33,1.79c-0.6,3.41-1.03,6.85-1.45,10.18
			l-0.04,0.35c-2.61,20.85-5.58,44.48,7.98,56.66c11.26,10.11,31.36,12.84,51.4,14.27c8.85,0.63,17.79,0.72,26.58,0.25
			c2.42-0.13,4.82-0.41,7.37-0.72c0.9-0.11,1.8-0.21,2.7-0.31c35.39-3.91,68.69-21.99,91.37-49.63
			c9.21-11.22,16.38-23.89,21.32-37.65c2.36-6.58,4.05-12.76,5.16-18.9l0.05-0.16c11.75-29.61,11.88-52.9,0.37-65.59
			c-0.29-0.32-0.67-0.59-1.08-0.88l-0.43-0.31c-0.68-0.5-1.38-1-2.1-1.48c-1.4-0.95-2.86-1.84-4.1-2.58
			c-5.35-3.2-10.54-5.79-15.88-7.93c-0.63-0.25-1.25-0.52-1.88-0.79c-1.51-0.65-3.08-1.33-4.69-1.74
			c-5.81-1.47-11.11-2.89-16.24-4.26c-8.27-2.22-16.09-4.31-24.21-6.09c-5.23-1.15-11.98-0.74-17.89-0.19
			c-2.33,0.22-4.68,0.48-7.04,0.74L174.04,55.03z"/>
	</g>
	<g>
		<linearGradient id="SVGID_15_" gradientUnits="userSpaceOnUse" x1="168.3495" y1="252.0587" x2="168.3495" y2="55.5529">
			<stop  offset="0" style="stop-color:#FF7CAE"/>
			<stop  offset="0.349" style="stop-color:#B50A94"/>
			<stop  offset="0.6755" style="stop-color:#4D0672"/>
			<stop  offset="1" style="stop-color:#5861D6"/>
		</linearGradient>
		<path class="st14" d="M128.21,252.06c-3.67,0-7.35-0.09-11.01-0.26c-19.85-0.95-40.19-2.72-51.62-12.79
			c-13.35-11.76-9.83-33.91-6.44-55.32l0.39-2.43c0.48-3.06,0.98-6.23,1.63-9.37c0.12-0.59,0.25-1.18,0.38-1.77
			c0.25-1.13,0.56-2.26,0.86-3.38c0.4-1.5,0.82-3.04,1.1-4.58c1.05-5.71,2.65-11.98,8.42-14.02c12.39-4.38,18.5-14.47,16.33-26.99
			c-0.85-4.92,1.31-9.12,6.1-11.82c2.98-1.68,6.88-2.75,10.72-2.95c0.59-0.13,1.17-0.28,1.74-0.44c1-0.28,1.78-0.56,2.47-0.88
			c2.83-1.31,4.62-3.4,5.64-6.58c0.48-1.48,0.89-3.1,1.24-4.79l0.18-0.84c0.29-1.38,0.59-2.8,0.76-4.21
			c0.57-4.49,2.9-15.09,12.26-16.54c5.38-0.83,11.65-1.91,18.02-4.26c3.09-1.13,6.18-2.6,9.17-4.02c5.73-2.73,11.66-5.55,18.28-6.39
			l2.89-0.38c1.92-0.25,3.83-0.5,5.71-0.72c6.31-0.73,12.88-1.25,18.11-0.15c6.33,1.33,12.37,2.8,18.77,4.36
			c6.59,1.61,13.4,3.27,21.24,4.94c1.72,0.37,3.32,1,4.87,1.61c0.62,0.25,1.24,0.49,1.86,0.71c5.38,1.94,10.62,4.34,16.04,7.32
			c1.27,0.7,2.75,1.53,4.18,2.43c0.75,0.47,1.47,0.94,2.16,1.43l0.41,0.27c0.47,0.31,0.95,0.63,1.37,1.07
			c11.65,12.48,10.92,35.88-2.07,65.88c-1.22,5.94-2.99,11.95-5.42,18.37c-5.09,13.46-12.32,25.83-21.47,36.78
			c-22.53,26.93-55.35,44.8-90.03,49.03c-0.98,0.12-1.95,0.25-2.92,0.38c-2.43,0.32-4.72,0.62-7.05,0.78
			C138.43,251.89,133.33,252.06,128.21,252.06z M175.03,59.12c-6.35,0.81-12.15,3.57-17.76,6.24c-3.03,1.44-6.15,2.93-9.31,4.08
			c-6.51,2.4-12.88,3.5-18.34,4.34c-7.92,1.22-10.18,9.96-10.83,15.06c-0.19,1.48-0.49,2.94-0.79,4.35l-0.17,0.83
			c-0.36,1.76-0.79,3.43-1.29,4.97c-1.16,3.61-3.31,6.1-6.55,7.6c-0.77,0.35-1.63,0.66-2.72,0.97c-0.63,0.18-1.27,0.34-1.92,0.48
			l-0.14,0.02c-3.61,0.18-7.27,1.17-10.04,2.74c-2.91,1.64-6.18,4.71-5.25,10.04c2.29,13.21-4.4,24.28-17.44,28.89
			c-4.91,1.74-6.31,7.23-7.31,12.72c-0.29,1.6-0.72,3.18-1.13,4.71c-0.3,1.1-0.59,2.2-0.84,3.31c-0.13,0.58-0.25,1.16-0.37,1.74
			c-0.64,3.11-1.13,6.25-1.61,9.29l-0.39,2.44c-3.33,20.96-6.76,42.64,5.88,53.78c11.02,9.71,31.03,11.44,50.58,12.37
			c8.71,0.42,17.48,0.33,26.08-0.25c2.27-0.15,4.54-0.45,6.94-0.77c0.97-0.13,1.95-0.26,2.93-0.38
			c34.26-4.18,66.67-21.83,88.93-48.43c9.03-10.8,16.16-23,21.19-36.28c2.41-6.36,4.16-12.31,5.36-18.19l0.05-0.17
			c12.73-29.38,13.59-52.15,2.42-64.12c-0.28-0.3-0.66-0.55-1.06-0.82c-0.15-0.1-0.29-0.2-0.44-0.3c-0.67-0.47-1.37-0.93-2.1-1.38
			c-1.39-0.87-2.85-1.69-4.09-2.38c-5.34-2.94-10.5-5.29-15.79-7.21c-0.64-0.23-1.27-0.48-1.91-0.73c-1.49-0.59-3.02-1.19-4.6-1.53
			c-7.86-1.68-14.68-3.35-21.28-4.96c-6.38-1.56-12.42-3.03-18.72-4.35c-5.01-1.05-11.7-0.5-17.57,0.17
			c-1.88,0.22-3.78,0.46-5.69,0.72L175.03,59.12z"/>
	</g>
	<g>
		<linearGradient id="SVGID_16_" gradientUnits="userSpaceOnUse" x1="169.387" y1="248.9228" x2="169.387" y2="59.1973">
			<stop  offset="0" style="stop-color:#FF7CAE"/>
			<stop  offset="0.349" style="stop-color:#B50A94"/>
			<stop  offset="0.6755" style="stop-color:#4D0672"/>
			<stop  offset="1" style="stop-color:#5861D6"/>
		</linearGradient>
		<path class="st15" d="M123.9,248.92c-1.91,0-3.82-0.02-5.73-0.07c-20.7-0.48-40.16-1.67-50.85-10.89
			c-12.59-10.86-8.49-31.89-4.52-52.23l0.92-4.74c0.54-2.8,1.09-5.7,1.77-8.57c0.14-0.57,0.27-1.15,0.42-1.72
			c0.27-1.08,0.59-2.14,0.91-3.21c0.44-1.47,0.9-3,1.21-4.51c0.93-4.51,2.34-11.33,8.26-13.49c11.84-4.31,17.8-14.02,15.94-25.97
			c-0.75-4.79,1.32-8.74,5.98-11.42c2.85-1.64,6.59-2.73,10.28-2.99c0.57-0.13,1.12-0.28,1.66-0.45c0.96-0.29,1.71-0.56,2.36-0.87
			c2.7-1.29,4.43-3.3,5.44-6.33c0.48-1.44,0.9-2.99,1.24-4.6l0.18-0.81c0.29-1.32,0.6-2.69,0.79-4.04
			c0.75-5.35,3.29-14.53,11.93-15.99c6.35-1.07,11.72-2.22,17.29-4.31c2.92-1.1,5.73-2.45,8.7-3.88c5.55-2.67,11.29-5.42,17.71-6.35
			l0,0c1.2-0.17,2.4-0.36,3.59-0.54c1.63-0.25,3.25-0.49,4.85-0.72c6.28-0.87,12.79-1.53,17.83-0.52c4.84,0.97,9.45,1.99,14.33,3.08
			c7.67,1.71,15.59,3.48,25.18,5.17c1.69,0.3,3.27,0.86,4.8,1.4c0.63,0.22,1.25,0.45,1.88,0.65c5.33,1.71,10.55,3.87,15.96,6.58
			c1.35,0.68,2.79,1.42,4.18,2.22c0.75,0.44,1.48,0.87,2.17,1.33c0.14,0.09,0.27,0.17,0.41,0.25c0.48,0.29,0.97,0.59,1.39,1.03
			c11.36,11.82,9.9,34.73-4.11,64.52c-1.3,5.68-3.13,11.46-5.61,17.66c-5.19,12.97-12.37,24.88-21.35,35.4
			c-22.12,25.9-54.05,43.34-87.59,47.83c-1.04,0.14-2.07,0.29-3.09,0.44c-2.3,0.34-4.46,0.66-6.67,0.84
			C137.34,248.65,130.62,248.92,123.9,248.92z M176.03,63.21c-6.15,0.89-11.77,3.59-17.2,6.2c-2.88,1.38-5.85,2.81-8.84,3.94
			c-5.7,2.15-11.17,3.31-17.62,4.4c-7.54,1.27-9.81,9.64-10.49,14.51c-0.2,1.42-0.51,2.82-0.81,4.17l-0.18,0.8
			c-0.36,1.67-0.79,3.28-1.29,4.78c-1.15,3.47-3.22,5.87-6.34,7.36c-0.73,0.35-1.56,0.66-2.61,0.97c-0.6,0.18-1.21,0.35-1.84,0.49
			l-0.14,0.02c-3.46,0.24-6.96,1.25-9.6,2.77c-2.77,1.6-5.92,4.57-5.12,9.64c1.97,12.64-4.57,23.32-17.07,27.87
			c-4.62,1.68-6.06,6.95-7.15,12.21c-0.33,1.59-0.8,3.15-1.25,4.66c-0.31,1.04-0.63,2.09-0.89,3.14c-0.14,0.56-0.28,1.13-0.41,1.69
			c-0.67,2.84-1.22,5.71-1.75,8.5l-0.92,4.75c-3.87,19.85-7.87,40.38,3.95,50.57c10.25,8.84,29.38,9.99,49.75,10.46
			c8.57,0.2,17.17-0.05,25.57-0.74c2.15-0.18,4.29-0.49,6.56-0.82c1.03-0.15,2.07-0.3,3.12-0.44c33.13-4.44,64.65-21.65,86.5-47.23
			c8.85-10.37,15.94-22.12,21.06-34.92c2.46-6.15,4.28-11.87,5.55-17.49l0.06-0.18c7.94-16.87,19.09-47.45,4.47-62.66
			c-0.27-0.28-0.64-0.51-1.04-0.75c-0.15-0.09-0.3-0.18-0.44-0.28c-0.67-0.44-1.37-0.86-2.1-1.28c-1.35-0.78-2.76-1.51-4.09-2.17
			c-5.33-2.67-10.47-4.79-15.71-6.48c-0.64-0.21-1.29-0.44-1.93-0.66c-1.46-0.52-2.97-1.06-4.52-1.33
			c-9.63-1.7-17.58-3.47-25.26-5.18c-4.87-1.08-9.47-2.11-14.29-3.07c-4.79-0.96-11.12-0.31-17.25,0.54
			c-1.6,0.22-3.21,0.46-4.82,0.71C178.44,62.85,177.23,63.03,176.03,63.21L176.03,63.21z"/>
	</g>
	<g>
		<linearGradient id="SVGID_17_" gradientUnits="userSpaceOnUse" x1="170.3936" y1="245.9236" x2="170.3936" y2="62.8218">
			<stop  offset="0" style="stop-color:#FF7CAE"/>
			<stop  offset="0.349" style="stop-color:#B50A94"/>
			<stop  offset="0.6755" style="stop-color:#4D0672"/>
			<stop  offset="1" style="stop-color:#5861D6"/>
		</linearGradient>
		<path class="st16" d="M115.06,245.92c-17.35,0-36.01-0.57-46-8.98c-11.91-10.03-7.21-30.08-2.67-49.47
			c0.37-1.59,0.74-3.17,1.1-4.75l0.43-1.89c0.58-2.57,1.18-5.22,1.89-7.84c0.15-0.56,0.3-1.11,0.46-1.67
			c0.29-1.02,0.63-2.04,0.97-3.05c0.48-1.45,0.98-2.95,1.33-4.44c1.06-4.58,2.51-10.86,8.1-12.96
			c11.27-4.24,17.08-13.56,15.55-24.95c-0.63-4.58,1.39-8.39,5.86-11.02c2.76-1.62,6.25-2.7,9.84-3.04
			c0.54-0.14,1.07-0.29,1.59-0.45c0.94-0.3,1.64-0.56,2.25-0.87c2.58-1.26,4.24-3.2,5.23-6.09c0.47-1.37,0.89-2.86,1.25-4.41
			l0.21-0.9c0.29-1.22,0.58-2.49,0.78-3.74c0.79-5.11,3.35-13.92,11.59-15.44c6.07-1.12,11.21-2.29,16.57-4.37
			c2.78-1.07,5.46-2.37,8.3-3.75c5.35-2.6,10.88-5.28,17.06-6.29l0,0c1.33-0.22,2.66-0.45,3.98-0.68c1.44-0.25,2.87-0.5,4.29-0.73
			c6.24-1.01,12.69-1.81,17.55-0.9c3.65,0.69,7.12,1.4,10.8,2.15c8.42,1.72,17.13,3.51,28.22,5.04c1.66,0.23,3.23,0.72,4.74,1.2
			c0.63,0.2,1.26,0.4,1.89,0.58c5.29,1.49,10.48,3.4,15.89,5.85c1.37,0.62,2.82,1.29,4.18,2.02c0.76,0.4,1.48,0.81,2.18,1.22
			c0.14,0.08,0.28,0.16,0.41,0.24c0.48,0.27,0.98,0.56,1.41,0.99c14.94,15.07,2.59,46-6.15,63.16c-1.37,5.42-3.27,10.97-5.81,16.96
			c-5.28,12.49-12.43,23.94-21.23,34.02c-21.7,24.88-52.74,41.87-85.15,46.63c-1.08,0.16-2.16,0.33-3.22,0.51
			c-2.18,0.35-4.25,0.69-6.35,0.89c-8.26,0.8-16.75,1.22-25.23,1.24C117.79,245.92,116.43,245.92,115.06,245.92z M177.03,67.29
			c-5.93,0.97-11.34,3.6-16.57,6.14c-2.75,1.33-5.59,2.71-8.43,3.81c-5.49,2.12-10.72,3.31-16.89,4.45
			c-7.16,1.32-9.44,9.32-10.15,13.96c-0.2,1.32-0.51,2.62-0.8,3.88l-0.21,0.9c-0.37,1.61-0.81,3.16-1.3,4.59
			c-1.14,3.32-3.14,5.65-6.14,7.11c-0.7,0.34-1.47,0.64-2.5,0.97c-0.58,0.18-1.16,0.35-1.76,0.5l-0.14,0.02
			c-3.31,0.3-6.65,1.32-9.17,2.8c-2.65,1.56-5.67,4.43-5,9.24c1.65,12.27-4.58,22.31-16.69,26.86c-4.69,1.76-6.02,7.5-6.99,11.7
			c-0.36,1.57-0.88,3.11-1.37,4.6c-0.33,0.99-0.66,1.98-0.95,2.98c-0.16,0.55-0.31,1.09-0.45,1.64c-0.69,2.59-1.29,5.23-1.87,7.78
			l-0.43,1.9c-0.36,1.58-0.73,3.16-1.11,4.75c-4.42,18.87-8.99,38.37,2.08,47.7c10.28,8.66,30.81,8.61,48.93,8.56
			c8.43-0.02,16.86-0.44,25.07-1.23c2.04-0.2,4.08-0.53,6.23-0.88c1.07-0.17,2.15-0.35,3.25-0.51c32-4.69,62.64-21.47,84.06-46.04
			c8.68-9.95,15.72-21.23,20.93-33.55c2.51-5.94,4.39-11.43,5.75-16.8l0.07-0.19c14.49-28.45,16.87-50.75,6.51-61.19
			c-0.25-0.26-0.63-0.47-1.02-0.69c-0.15-0.08-0.3-0.17-0.45-0.26c-0.67-0.4-1.37-0.79-2.1-1.18c-1.32-0.7-2.74-1.36-4.08-1.97
			c-5.32-2.41-10.43-4.3-15.63-5.76c-0.65-0.18-1.29-0.39-1.94-0.59c-1.44-0.46-2.93-0.93-4.44-1.14
			c-11.15-1.54-19.88-3.33-28.33-5.05c-3.67-0.75-7.13-1.46-10.77-2.15c-4.6-0.87-10.86-0.08-16.94,0.9
			c-1.41,0.23-2.83,0.48-4.26,0.73C179.7,66.84,178.37,67.07,177.03,67.29L177.03,67.29z"/>
	</g>
	<g>
		<linearGradient id="SVGID_18_" gradientUnits="userSpaceOnUse" x1="171.2836" y1="243.2894" x2="171.2836" y2="66.4291">
			<stop  offset="0" style="stop-color:#FF7CAE"/>
			<stop  offset="0.349" style="stop-color:#B50A94"/>
			<stop  offset="0.6755" style="stop-color:#4D0672"/>
			<stop  offset="1" style="stop-color:#5861D6"/>
		</linearGradient>
		<path class="st17" d="M104.99,243.29c-13.54,0-26.68-1.21-34.19-7.38c-11.29-9.27-6-28.44-0.87-46.99
			c0.55-1.99,1.1-3.97,1.62-5.93l0.59-2.23c0.62-2.36,1.27-4.8,2-7.21c0.16-0.54,0.33-1.08,0.5-1.62c0.31-0.98,0.67-1.94,1.02-2.91
			c0.52-1.42,1.06-2.89,1.44-4.36c1.19-4.63,2.68-10.39,7.93-12.43c10.73-4.17,16.4-13.12,15.16-23.93
			c-0.51-4.37,1.47-8.05,5.74-10.62c2.63-1.58,5.96-2.68,9.4-3.08c0.51-0.14,1.02-0.3,1.51-0.46c0.9-0.3,1.56-0.56,2.15-0.86
			c2.46-1.24,4.06-3.1,5.03-5.85c0.47-1.32,0.89-2.75,1.25-4.22l0.22-0.88c0.29-1.17,0.59-2.37,0.79-3.57
			c1.44-8.42,5.43-13.71,11.25-14.89c5.79-1.17,10.7-2.37,15.85-4.42c2.64-1.05,5.19-2.3,7.89-3.63c5.15-2.53,10.47-5.14,16.43-6.24
			l0,0c1.4-0.26,2.81-0.54,4.2-0.82c1.31-0.26,2.61-0.52,3.9-0.76c6.2-1.15,12.58-2.1,17.27-1.27c2.74,0.49,5.41,0.99,8.1,1.49
			c8.9,1.67,18.1,3.41,30.42,4.63c1.64,0.16,3.18,0.59,4.68,1c0.63,0.18,1.26,0.35,1.89,0.5c5.25,1.26,10.43,2.93,15.81,5.12
			c1.3,0.53,2.8,1.15,4.18,1.81c0.76,0.37,1.49,0.74,2.19,1.12c0.14,0.08,0.27,0.15,0.41,0.22c0.49,0.25,1,0.52,1.43,0.94
			c10.65,10.39,7.66,32.92-8.19,61.81c-1.45,5.16-3.42,10.48-6,16.25c-5.38,12-12.48,22.98-21.1,32.65
			c-21.29,23.86-51.43,40.42-82.7,45.42c-1.12,0.18-2.22,0.38-3.31,0.57c-2.08,0.37-4.05,0.72-6.05,0.95
			c-8.07,0.91-16.38,1.49-24.72,1.74l-1.63,0.05C114.07,243.16,109.51,243.29,104.99,243.29z M178.03,71.38
			c-5.71,1.05-10.92,3.61-15.95,6.08c-2.62,1.28-5.32,2.61-8.02,3.69c-5.27,2.1-10.27,3.32-16.16,4.51
			c-6.45,1.31-8.9,8.02-9.82,13.41c-0.21,1.26-0.52,2.5-0.82,3.7l-0.22,0.87c-0.37,1.53-0.81,3.01-1.3,4.39
			c-1.12,3.18-3.06,5.43-5.93,6.87c-0.67,0.34-1.41,0.63-2.39,0.96c-0.55,0.18-1.11,0.36-1.68,0.51l-0.13,0.03
			c-3.21,0.37-6.31,1.38-8.74,2.84c-3.66,2.21-5.3,5.19-4.87,8.85c1.34,11.69-4.76,21.35-16.31,25.84
			c-4.38,1.7-5.74,6.96-6.83,11.19c-0.4,1.55-0.96,3.07-1.49,4.53c-0.35,0.94-0.69,1.88-1,2.83c-0.17,0.53-0.33,1.06-0.49,1.59
			c-0.72,2.38-1.36,4.81-1.98,7.15l-0.59,2.23c-0.53,1.97-1.08,3.96-1.63,5.95c-4.97,17.98-10.11,36.58,0.27,45.1
			c9.5,7.8,29.14,7.22,46.48,6.7l1.63-0.05c8.28-0.24,16.55-0.82,24.56-1.73c1.95-0.22,3.88-0.57,5.94-0.93
			c1.1-0.2,2.22-0.39,3.34-0.58c30.86-4.94,60.62-21.29,81.63-44.84c8.5-9.53,15.5-20.35,20.8-32.18c2.57-5.73,4.51-10.99,5.94-16.1
			l0.08-0.19c15.47-28.16,18.59-49.93,8.56-59.72c-0.24-0.24-0.61-0.43-1-0.63c-0.15-0.08-0.31-0.16-0.46-0.24
			c-0.67-0.37-1.36-0.72-2.1-1.08c-1.33-0.65-2.8-1.25-4.08-1.77c-5.3-2.15-10.39-3.79-15.55-5.03c-0.65-0.16-1.3-0.34-1.95-0.52
			c-1.42-0.39-2.89-0.8-4.37-0.95c-12.4-1.24-21.64-2.98-30.58-4.66c-2.68-0.5-5.35-1.01-8.08-1.49
			c-4.41-0.78-10.59,0.15-16.62,1.26c-1.28,0.24-2.58,0.5-3.88,0.76C180.86,70.84,179.45,71.12,178.03,71.38L178.03,71.38z"/>
	</g>
	<g>
		<linearGradient id="SVGID_19_" gradientUnits="userSpaceOnUse" x1="172.2219" y1="240.9352" x2="172.2219" y2="70.0168">
			<stop  offset="0" style="stop-color:#FF7CAE"/>
			<stop  offset="0.349" style="stop-color:#B50A94"/>
			<stop  offset="0.6755" style="stop-color:#4D0672"/>
			<stop  offset="1" style="stop-color:#5861D6"/>
		</linearGradient>
		<path class="st18" d="M99.71,240.94c-10.97,0-21.12-1.23-27.17-6.06c-10.74-8.56-4.83-26.95,0.88-44.74
			c0.74-2.31,1.48-4.62,2.19-6.9c0.26-0.83,0.51-1.66,0.76-2.5c0.66-2.18,1.34-4.43,2.09-6.65c0.18-0.52,0.36-1.05,0.55-1.57
			c0.33-0.93,0.7-1.85,1.07-2.76c0.56-1.39,1.14-2.83,1.56-4.27c1.28-4.47,2.84-9.92,7.76-11.9c10.19-4.1,15.72-12.67,14.78-22.91
			c-0.39-4.17,1.55-7.7,5.62-10.21c2.5-1.54,5.67-2.65,8.96-3.12c0.49-0.14,0.97-0.3,1.44-0.47c0.59-0.21,1.35-0.49,2.05-0.85
			c2.34-1.21,3.87-3,4.83-5.61c0.47-1.28,0.89-2.63,1.25-4.03l0.22-0.84c0.29-1.11,0.6-2.26,0.81-3.4
			c1.07-5.68,3.83-12.77,10.91-14.34c5.51-1.22,10.18-2.45,15.12-4.47c2.49-1.02,4.92-2.23,7.48-3.5
			c4.95-2.46,10.06-5.01,15.79-6.18h0c1.46-0.3,2.92-0.63,4.37-0.95c1.19-0.27,2.38-0.54,3.56-0.79c6.16-1.3,12.49-2.4,16.99-1.64
			c4.29,0.7,8.46,1.03,12.87,1.37c7.55,0.59,15.36,1.19,25.32,3.73c1.32,0.34,2.67,0.56,3.98,0.78c0.8,0.13,1.58,0.27,2.36,0.42
			c5.23,1.04,10.37,2.47,15.73,4.38c1.37,0.49,2.82,1.01,4.19,1.61c0.77,0.33,1.5,0.67,2.2,1.02c0.13,0.07,0.27,0.13,0.41,0.2
			c0.5,0.24,1.02,0.48,1.47,0.9c10.38,9.79,6.65,31.82-10.23,60.45c-1.53,4.91-3.56,9.99-6.2,15.54
			c-5.48,11.51-12.53,22.03-20.98,31.27c-20.88,22.85-50.13,38.97-80.25,44.22c-1.14,0.2-2.27,0.42-3.38,0.64
			c-1.99,0.39-3.87,0.75-5.78,1c-7.87,1.02-16.01,1.77-24.2,2.23l-3.27,0.19C111.88,240.57,105.67,240.94,99.71,240.94z
			 M179.03,75.46c-5.49,1.12-10.5,3.62-15.34,6.02c-2.48,1.24-5.05,2.51-7.61,3.56c-5.06,2.07-9.83,3.32-15.42,4.56
			c-6.1,1.35-8.53,7.74-9.49,12.87c-0.23,1.2-0.54,2.39-0.84,3.53l-0.22,0.83c-0.38,1.45-0.82,2.87-1.31,4.2
			c-1.11,3.03-2.98,5.2-5.72,6.62c-0.8,0.41-1.64,0.73-2.28,0.96c-0.53,0.18-1.06,0.36-1.6,0.52l-0.13,0.03
			c-3.06,0.43-6.01,1.45-8.31,2.88c-3.47,2.15-5.07,4.99-4.75,8.46c1.02,11.11-4.94,20.38-15.93,24.81
			c-4.08,1.64-5.44,6.4-6.64,10.59c-0.47,1.63-1.07,3.11-1.65,4.55c-0.36,0.89-0.72,1.79-1.05,2.69c-0.18,0.51-0.36,1.03-0.53,1.54
			c-0.74,2.19-1.42,4.43-2.08,6.59c-0.25,0.84-0.51,1.67-0.76,2.5c-0.7,2.29-1.45,4.6-2.19,6.92c-5.52,17.18-11.23,34.95-1.49,42.71
			c8.78,7.01,27.5,5.91,44.01,4.94l3.27-0.19c8.14-0.46,16.24-1.21,24.06-2.22c1.86-0.24,3.71-0.6,5.67-0.98
			c1.13-0.22,2.26-0.44,3.42-0.64c29.73-5.19,58.6-21.09,79.2-43.65c8.32-9.11,15.27-19.47,20.67-30.81
			c2.62-5.51,4.63-10.55,6.13-15.4l0.09-0.2c16.45-27.87,20.32-49.1,10.61-58.25c-0.23-0.22-0.6-0.39-0.99-0.57
			c-0.15-0.07-0.3-0.14-0.46-0.22c-0.66-0.34-1.36-0.66-2.09-0.97c-1.31-0.57-2.73-1.09-4.07-1.56c-5.27-1.88-10.33-3.29-15.47-4.31
			c-0.76-0.15-1.53-0.28-2.31-0.41c-1.35-0.22-2.74-0.46-4.13-0.81c-9.8-2.5-17.53-3.1-25-3.68c-4.45-0.35-8.66-0.67-13.03-1.39
			c-4.2-0.71-10.32,0.37-16.3,1.63c-1.17,0.25-2.35,0.51-3.54,0.78C181.98,74.83,180.51,75.16,179.03,75.46L179.03,75.46z"/>
	</g>
	<g>
		<linearGradient id="SVGID_20_" gradientUnits="userSpaceOnUse" x1="173.1383" y1="238.8198" x2="173.1383" y2="73.5886">
			<stop  offset="0" style="stop-color:#FF7CAE"/>
			<stop  offset="0.349" style="stop-color:#B50A94"/>
			<stop  offset="0.6755" style="stop-color:#4D0672"/>
			<stop  offset="1" style="stop-color:#5861D6"/>
		</linearGradient>
		<path class="st19" d="M95.91,238.82c-8.89,0-16.67-1.15-21.63-4.97c-10.23-7.9-3.71-25.58,2.6-42.67c0.95-2.58,1.9-5.15,2.79-7.67
			c0.32-0.91,0.64-1.83,0.95-2.75c0.69-2,1.4-4.07,2.17-6.1c0.19-0.51,0.39-1.01,0.59-1.52c0.35-0.89,0.74-1.76,1.12-2.63
			c0.63-1.42,1.22-2.76,1.67-4.17l0.1-0.31c1.29-4.07,2.89-9.13,7.49-11.05c9.8-4.1,15.05-12.08,14.39-21.9
			c-0.27-3.96,1.63-7.35,5.5-9.8c2.37-1.5,5.39-2.63,8.51-3.17c0.46-0.15,0.92-0.31,1.36-0.48c0.6-0.22,1.3-0.5,1.94-0.85
			c2.22-1.19,3.69-2.9,4.63-5.38c0.47-1.24,0.89-2.53,1.26-3.84l0.23-0.82c0.3-1.05,0.6-2.14,0.83-3.22
			c1.6-7.73,5.26-12.5,10.57-13.79c5.22-1.27,9.67-2.52,14.4-4.52c2.35-0.99,4.64-2.15,7.07-3.37c4.75-2.4,9.66-4.88,15.16-6.13l0,0
			c1.47-0.34,2.94-0.7,4.4-1.07c1.13-0.28,2.25-0.57,3.37-0.83c7.06-1.67,12.6-2.65,16.7-2.02c4.42,0.67,8.71,0.9,13.26,1.15
			c6.87,0.37,14.65,0.8,24.44,2.88c1.32,0.28,2.66,0.45,3.96,0.62c0.78,0.1,1.56,0.2,2.32,0.32c5.2,0.81,10.32,2.01,15.66,3.65
			c1.38,0.42,2.83,0.88,4.19,1.4c0.78,0.3,1.51,0.6,2.2,0.92c0.14,0.06,0.28,0.12,0.41,0.18c0.51,0.22,1.04,0.44,1.49,0.85
			c10.12,9.2,5.65,30.74-12.27,59.1c-1.6,4.65-3.69,9.5-6.39,14.84c-5.57,11.01-12.59,21.07-20.85,29.89
			c-20.46,21.85-48.82,37.52-77.8,43.02c-1.16,0.22-2.3,0.46-3.42,0.7c-1.9,0.41-3.7,0.79-5.54,1.06
			c-7.65,1.12-15.61,2.04-23.67,2.73c-1.55,0.13-3.12,0.27-4.7,0.41C110.06,238.16,102.67,238.82,95.91,238.82z M180.04,79.55
			c-5.27,1.2-10.08,3.62-14.73,5.97c-2.35,1.19-4.78,2.41-7.18,3.43c-4.85,2.05-9.38,3.33-14.69,4.62
			c-5.75,1.4-8.16,7.48-9.16,12.33c-0.24,1.14-0.55,2.26-0.86,3.35l-0.23,0.81c-0.38,1.37-0.82,2.72-1.31,4.01
			c-1.1,2.89-2.9,4.97-5.5,6.37c-0.75,0.4-1.52,0.71-2.18,0.95c-0.5,0.19-1,0.37-1.52,0.53l-0.13,0.03c-2.9,0.49-5.7,1.53-7.88,2.91
			c-3.29,2.09-4.84,4.8-4.62,8.07c0.7,10.53-5.11,19.42-15.55,23.78c-3.79,1.58-5.18,5.99-6.41,9.87l-0.1,0.32
			c-0.48,1.5-1.12,2.96-1.74,4.36c-0.38,0.85-0.75,1.7-1.09,2.56c-0.2,0.5-0.39,0.99-0.58,1.49c-0.76,2.01-1.47,4.06-2.15,6.05
			c-0.32,0.93-0.64,1.85-0.96,2.76c-0.89,2.54-1.84,5.11-2.8,7.7c-6.07,16.45-12.35,33.47-3.22,40.52
			c8.12,6.28,25.99,4.68,41.74,3.27c1.59-0.14,3.16-0.28,4.71-0.41c8.02-0.68,15.95-1.6,23.56-2.72c1.78-0.26,3.55-0.64,5.42-1.04
			c1.14-0.24,2.29-0.49,3.47-0.71c28.6-5.42,56.58-20.9,76.77-42.45c8.14-8.69,15.05-18.59,20.54-29.45
			c2.68-5.3,4.75-10.11,6.33-14.7l0.1-0.2c17.17-27.15,21.9-48.37,12.66-56.78c-0.22-0.2-0.58-0.35-0.96-0.51
			c-0.15-0.07-0.31-0.13-0.46-0.2c-0.66-0.3-1.36-0.59-2.09-0.87c-1.3-0.5-2.72-0.95-4.06-1.36c-5.25-1.61-10.28-2.79-15.39-3.59
			c-0.75-0.12-1.5-0.21-2.27-0.31c-1.34-0.17-2.72-0.34-4.12-0.64c-9.64-2.05-17.35-2.48-24.15-2.85
			c-4.59-0.25-8.93-0.49-13.44-1.17c-4.03-0.61-10.06,0.59-15.98,1.99c-1.11,0.26-2.22,0.54-3.34,0.82
			C183.01,78.84,181.53,79.21,180.04,79.55L180.04,79.55z"/>
	</g>
	<g>
		<linearGradient id="SVGID_21_" gradientUnits="userSpaceOnUse" x1="174.0364" y1="236.8536" x2="174.0364" y2="77.1628">
			<stop  offset="0" style="stop-color:#FF7CAE"/>
			<stop  offset="0.349" style="stop-color:#B50A94"/>
			<stop  offset="0.6755" style="stop-color:#4D0672"/>
			<stop  offset="1" style="stop-color:#5861D6"/>
		</linearGradient>
		<path class="st20" d="M93.54,236.85c-7.22,0-13.44-1-17.5-4.03c-9.76-7.27-2.62-24.3,4.29-40.77c1.15-2.74,2.34-5.57,3.42-8.29
			c0.39-0.97,0.77-1.95,1.15-2.93c0.72-1.85,1.46-3.76,2.25-5.63c0.21-0.49,0.41-0.98,0.63-1.47c0.37-0.84,0.77-1.67,1.17-2.5
			c0.67-1.39,1.31-2.7,1.79-4.07l0.18-0.5c1.39-3.96,2.96-8.45,7.24-10.32c9.26-4.03,14.37-11.65,14.01-20.9
			c-0.14-3.75,1.72-7,5.38-9.39c2.23-1.46,5.09-2.6,8.06-3.21c0.44-0.15,0.87-0.32,1.29-0.49c0.61-0.24,1.25-0.51,1.84-0.84
			c2.1-1.17,3.51-2.8,4.43-5.14c0.47-1.19,0.89-2.42,1.26-3.65l0.24-0.8c0.3-1,0.61-2.02,0.84-3.04c1.7-7.42,5.14-11.87,10.22-13.23
			c4.94-1.32,9.16-2.6,13.68-4.58c2.2-0.96,4.36-2.07,6.65-3.24c4.55-2.34,9.26-4.75,14.54-6.08l0.24,0.94l-0.24-0.94
			c1.46-0.37,2.92-0.77,4.36-1.18c1.08-0.3,2.16-0.6,3.24-0.88c6.04-1.59,12.2-2.99,16.42-2.4c4.55,0.63,8.96,0.77,13.64,0.91
			c6.54,0.2,13.96,0.43,23.55,2.06c1.32,0.22,2.67,0.34,3.97,0.45c0.76,0.06,1.51,0.13,2.25,0.21c5.18,0.59,10.28,1.54,15.58,2.91
			c1.39,0.36,2.85,0.75,4.19,1.2c0.87,0.29,1.58,0.55,2.21,0.82c0.14,0.06,0.27,0.11,0.41,0.16c0.49,0.19,1.06,0.4,1.52,0.81
			c9.87,8.63,4.65,29.67-14.31,57.75c-1.67,4.39-3.83,9.01-6.59,14.13c-5.67,10.52-12.64,20.11-20.72,28.51
			c-20.35,21.16-47.11,36-75.35,41.81c-1.17,0.24-2.32,0.51-3.45,0.77c-1.83,0.42-3.55,0.82-5.31,1.11
			c-7.44,1.23-15.23,2.32-23.15,3.23c-1.95,0.22-3.94,0.47-5.95,0.71C108.99,235.85,100.76,236.85,93.54,236.85z M202.41,79.1
			c-3.77,0-8.8,1.17-13.75,2.47c-1.06,0.28-2.13,0.58-3.21,0.88c-1.46,0.41-2.93,0.82-4.41,1.19c-5.06,1.27-9.67,3.63-14.13,5.92
			c-2.31,1.19-4.5,2.31-6.76,3.29c-4.63,2.02-8.93,3.33-13.96,4.67c-4.34,1.16-7.31,5.13-8.84,11.79c-0.25,1.08-0.57,2.14-0.88,3.17
			l-0.24,0.79c-0.38,1.29-0.83,2.57-1.31,3.81c-1.08,2.74-2.81,4.75-5.29,6.12c-0.69,0.38-1.4,0.68-2.07,0.95
			c-0.47,0.19-0.95,0.37-1.44,0.54l-0.12,0.03c-2.76,0.56-5.4,1.61-7.45,2.95c-3.1,2.03-4.62,4.62-4.5,7.69
			c0.38,9.94-5.29,18.45-15.17,22.75c-3.51,1.53-4.93,5.6-6.18,9.18l-0.18,0.51c-0.52,1.48-1.21,2.9-1.87,4.27
			c-0.39,0.81-0.78,1.61-1.14,2.43c-0.21,0.48-0.41,0.96-0.62,1.44c-0.77,1.85-1.51,3.75-2.23,5.58c-0.38,0.99-0.77,1.97-1.15,2.94
			c-1.09,2.74-2.28,5.58-3.43,8.33c-6.62,15.78-13.46,32.1-4.92,38.47c7.51,5.6,24.59,3.51,39.66,1.67
			c2.02-0.25,4.01-0.49,5.97-0.71c7.89-0.91,15.65-1.99,23.06-3.21c1.7-0.28,3.4-0.67,5.19-1.09c1.15-0.27,2.31-0.53,3.5-0.78
			c27.86-5.73,54.26-20.38,74.35-41.26c7.96-8.27,14.83-17.72,20.42-28.09c2.74-5.08,4.87-9.67,6.52-14.01l0.1-0.2
			c18.14-26.82,23.63-47.49,14.71-55.3c-0.2-0.18-0.56-0.31-0.94-0.46c-0.15-0.06-0.31-0.12-0.47-0.18
			c-0.59-0.25-1.26-0.49-2.09-0.77c-1.28-0.43-2.71-0.81-4.06-1.16c-5.21-1.35-10.22-2.28-15.31-2.86c-0.72-0.08-1.46-0.14-2.2-0.21
			c-1.34-0.11-2.72-0.23-4.13-0.47c-9.46-1.61-16.81-1.83-23.29-2.04c-4.73-0.15-9.2-0.29-13.85-0.93
			C203.73,79.14,203.09,79.1,202.41,79.1z"/>
	</g>
	<g>
		<linearGradient id="SVGID_22_" gradientUnits="userSpaceOnUse" x1="174.5263" y1="235.0309" x2="174.5263" y2="80.725">
			<stop  offset="0" style="stop-color:#FF7CAE"/>
			<stop  offset="0.349" style="stop-color:#B50A94"/>
			<stop  offset="0.6755" style="stop-color:#4D0672"/>
			<stop  offset="1" style="stop-color:#5861D6"/>
		</linearGradient>
		<path class="st21" d="M91.92,235.03c-5.84,0-10.81-0.85-14.15-3.24c-9.34-6.67-1.56-23.11,5.95-39.01
			c1.37-2.9,2.79-5.91,4.07-8.78c0.45-1.01,0.9-2.03,1.34-3.05c0.76-1.74,1.52-3.48,2.32-5.21c0.22-0.47,0.44-0.95,0.67-1.42
			c0.39-0.8,0.8-1.59,1.22-2.38c0.71-1.35,1.39-2.62,1.91-3.96l0.26-0.67c1.41-3.66,3.01-7.81,6.98-9.61
			c8.72-3.96,13.69-11.21,13.63-19.9c-0.02-3.54,1.8-6.64,5.25-8.97c2.69-1.81,5.61-2.77,7.61-3.25c0.41-0.15,0.82-0.32,1.22-0.49
			c0.67-0.28,1.22-0.54,1.74-0.83c1.98-1.15,3.33-2.71,4.24-4.91c0.47-1.15,0.9-2.31,1.26-3.46l0.24-0.76
			c0.3-0.94,0.62-1.92,0.86-2.88c1.77-7,5.09-11.26,9.87-12.67c4.67-1.37,8.67-2.68,12.96-4.63c2.05-0.93,4.08-1.99,6.22-3.11
			c4.36-2.28,8.87-4.63,13.92-6.03l0,0c1.44-0.4,2.88-0.84,4.3-1.28c1.05-0.32,2.09-0.64,3.13-0.94c5.97-1.74,12.07-3.27,16.14-2.77
			c4.68,0.59,9.03,0.62,14.07,0.65c6.23,0.04,13.28,0.09,22.63,1.26c1.31,0.16,2.64,0.22,3.93,0.28c0.75,0.03,1.5,0.06,2.23,0.12
			c5.16,0.37,10.23,1.08,15.5,2.18c1.45,0.3,2.87,0.61,4.2,0.99c0.88,0.25,1.59,0.48,2.23,0.72c0.6,0.22,1.23,0.47,1.82,0.8
			l0.15,0.09l0.11,0.14c8.21,9.84,2.2,30.35-16.48,56.28c-1.74,4.14-3.96,8.53-6.78,13.43c-5.77,10.02-12.7,19.15-20.6,27.13
			c-19.94,20.15-45.83,34.57-72.9,40.61c-1.17,0.26-2.32,0.55-3.45,0.83c-1.76,0.44-3.41,0.86-5.11,1.17
			c-7.22,1.34-14.84,2.59-22.63,3.72c-2.29,0.33-4.66,0.7-7.05,1.08C108.26,233.64,99.38,235.03,91.92,235.03z M182.05,87.72
			c-4.86,1.34-9.27,3.65-13.54,5.88c-2.17,1.13-4.22,2.2-6.32,3.15c-4.4,1.99-8.47,3.33-13.22,4.73c-4.07,1.19-6.93,4.98-8.52,11.26
			c-0.26,1.03-0.58,2.04-0.9,3.01l-0.24,0.75c-0.38,1.2-0.83,2.42-1.32,3.61c-1.07,2.59-2.73,4.51-5.07,5.87
			c-0.64,0.37-1.32,0.67-1.95,0.94c-0.45,0.19-0.9,0.38-1.36,0.55l-0.11,0.03c-2.61,0.63-5.1,1.69-7.03,2.98
			c-2.92,1.97-4.4,4.43-4.38,7.32c0.07,9.49-5.32,17.41-14.79,21.71c-3.24,1.47-4.62,5.05-5.95,8.52l-0.26,0.67
			c-0.56,1.45-1.29,2.83-2,4.17c-0.4,0.76-0.81,1.53-1.18,2.31c-0.22,0.46-0.44,0.93-0.66,1.39c-0.8,1.71-1.55,3.45-2.3,5.17
			c-0.45,1.03-0.9,2.05-1.35,3.07c-1.29,2.89-2.71,5.9-4.09,8.82c-7.17,15.16-14.58,30.85-6.59,36.56c6.93,4.96,23.3,2.4,37.74,0.14
			c2.4-0.37,4.77-0.74,7.07-1.08c7.77-1.13,15.36-2.38,22.56-3.71c1.63-0.3,3.26-0.71,4.99-1.14c1.15-0.29,2.32-0.58,3.5-0.84
			c26.7-5.95,52.25-20.18,71.92-40.07c7.78-7.86,14.6-16.85,20.29-26.72c2.8-4.86,5-9.22,6.72-13.31l0.11-0.2
			c17.8-24.68,24.05-44.77,16.75-53.81c-0.42-0.22-0.91-0.41-1.37-0.58c-0.59-0.22-1.25-0.43-2.09-0.67
			c-1.26-0.36-2.64-0.66-4.05-0.95c-5.18-1.08-10.16-1.78-15.23-2.14c-0.72-0.05-1.44-0.08-2.18-0.11c-1.32-0.06-2.7-0.12-4.09-0.29
			c-9.24-1.16-16.23-1.21-22.4-1.25c-4.88-0.03-9.5-0.07-14.29-0.67c-3.72-0.45-9.57,1.03-15.34,2.71c-1.03,0.3-2.06,0.62-3.1,0.93
			C184.97,86.87,183.51,87.31,182.05,87.72L182.05,87.72z"/>
	</g>
	<g>
		<linearGradient id="SVGID_23_" gradientUnits="userSpaceOnUse" x1="175.395" y1="233.3321" x2="175.395" y2="84.2749">
			<stop  offset="0" style="stop-color:#FF7CAE"/>
			<stop  offset="0.349" style="stop-color:#B50A94"/>
			<stop  offset="0.6755" style="stop-color:#4D0672"/>
			<stop  offset="1" style="stop-color:#5861D6"/>
		</linearGradient>
		<path class="st22" d="M90.9,233.33c-4.69,0-8.65-0.7-11.37-2.56c-8.94-6.1-0.53-22,7.6-37.37c1.6-3.03,3.26-6.16,4.74-9.14
			c0.52-1.04,1.03-2.09,1.54-3.14c0.78-1.61,1.57-3.23,2.39-4.83c0.23-0.46,0.47-0.91,0.71-1.37c0.4-0.76,0.83-1.51,1.26-2.26
			c0.76-1.31,1.47-2.55,2.03-3.85l0.34-0.81c1.42-3.36,3.04-7.18,6.71-8.92c8.19-3.89,13.02-10.78,13.25-18.9
			c0.11-3.37,1.83-6.25,5.12-8.54c2.54-1.77,5.33-2.78,7.22-3.31c0.3-0.13,0.69-0.31,1.09-0.49c0.52-0.23,1.11-0.51,1.64-0.83
			c1.87-1.12,3.15-2.61,4.04-4.68c0.48-1.13,0.9-2.2,1.27-3.27l0.26-0.75c0.31-0.88,0.62-1.79,0.87-2.69
			c1.86-6.67,4.98-10.63,9.52-12.1c3.55-1.15,7.71-2.55,12.25-4.69c1.9-0.89,3.78-1.9,5.77-2.96c4.17-2.22,8.48-4.52,13.32-5.99l0,0
			c1.42-0.43,2.83-0.91,4.22-1.38c1.02-0.34,2.03-0.68,3.04-1.01c5.92-1.89,11.93-3.57,15.85-3.15l2.57,0.28
			c9.24,1.02,17.96,1.99,33.45,0.58c1.52-0.14,3-0.05,4.43,0.03c0.62,0.04,1.24,0.08,1.85,0.09c5.17,0.14,10.21,0.61,15.42,1.44
			c1.46,0.23,2.88,0.47,4.2,0.78c0.89,0.21,1.6,0.41,2.24,0.62c0.71,0.23,1.29,0.44,1.84,0.73l0.17,0.09l0.12,0.15
			c7.89,9.26,1.13,29.28-18.54,54.92c-1.81,3.89-4.09,8.05-6.98,12.72c-5.87,9.52-12.76,18.18-20.47,25.74
			c-19.53,19.16-44.55,33.15-70.44,39.4c-1.17,0.28-2.31,0.59-3.44,0.9c-1.69,0.46-3.29,0.89-4.92,1.22
			c-7,1.44-14.44,2.86-22.11,4.22c-2.59,0.46-5.28,0.98-8.01,1.5C107.79,231.53,98.41,233.33,90.9,233.33z M183.06,91.8
			c-4.66,1.42-8.88,3.67-12.96,5.85c-2.01,1.07-3.92,2.09-5.86,3c-4.64,2.19-8.88,3.61-12.49,4.78c-3.85,1.25-6.53,4.75-8.2,10.73
			c-0.27,0.96-0.59,1.9-0.91,2.81l-0.26,0.74c-0.38,1.12-0.82,2.24-1.32,3.42c-1.05,2.44-2.64,4.28-4.85,5.61
			c-0.62,0.38-1.28,0.68-1.84,0.94c-0.42,0.19-0.84,0.38-1.27,0.56c-1.85,0.52-4.4,1.45-6.72,3.06c-2.74,1.91-4.18,4.25-4.26,6.95
			c-0.26,8.9-5.5,16.43-14.4,20.66c-2.98,1.42-4.38,4.71-5.72,7.89l-0.35,0.81c-0.61,1.41-1.38,2.76-2.13,4.06
			c-0.42,0.73-0.84,1.45-1.23,2.19c-0.24,0.45-0.47,0.9-0.7,1.35c-0.81,1.59-1.59,3.19-2.37,4.79c-0.51,1.06-1.03,2.11-1.55,3.16
			c-1.49,3-3.15,6.14-4.76,9.18c-7.72,14.59-15.71,29.68-8.25,34.77c6.39,4.36,22.09,1.34,35.94-1.32c2.74-0.53,5.44-1.04,8.04-1.51
			c7.66-1.35,15.08-2.77,22.05-4.2c1.57-0.32,3.14-0.75,4.8-1.2c1.15-0.31,2.31-0.62,3.49-0.91c25.54-6.17,50.23-19.98,69.5-38.88
			c7.6-7.45,14.38-15.98,20.16-25.36c2.87-4.65,5.13-8.78,6.91-12.62l0.11-0.19c18.69-24.36,25.7-43.89,18.79-52.33
			c-0.38-0.18-0.82-0.34-1.35-0.51c-0.58-0.19-1.24-0.37-2.08-0.57c-1.25-0.3-2.63-0.53-4.05-0.75c-5.12-0.82-10.08-1.28-15.16-1.42
			c-0.63-0.02-1.27-0.06-1.92-0.09c-1.35-0.08-2.75-0.17-4.12-0.04c-15.69,1.43-24.51,0.46-33.86-0.58l-2.57-0.28
			c-3.55-0.38-9.32,1.25-15.03,3.07c-1,0.32-2,0.66-3.01,1C185.93,90.88,184.5,91.36,183.06,91.8L183.06,91.8z"/>
	</g>
	<g>
		<linearGradient id="SVGID_24_" gradientUnits="userSpaceOnUse" x1="176.2564" y1="231.7401" x2="176.2564" y2="87.4134">
			<stop  offset="0" style="stop-color:#FF7CAE"/>
			<stop  offset="0.349" style="stop-color:#B50A94"/>
			<stop  offset="0.6755" style="stop-color:#4D0672"/>
			<stop  offset="1" style="stop-color:#5861D6"/>
		</linearGradient>
		<path class="st23" d="M90.35,231.74c-3.73,0-6.86-0.57-9.06-1.99c-8.59-5.55,0.48-20.96,9.25-35.85c1.83-3.12,3.73-6.34,5.41-9.38
			c0.59-1.07,1.17-2.14,1.75-3.22c0.81-1.49,1.61-2.98,2.44-4.46c0.25-0.44,0.5-0.88,0.75-1.32c0.42-0.73,0.86-1.44,1.31-2.15
			c0.8-1.27,1.55-2.47,2.15-3.74l0.43-0.92c1.43-3.08,3.06-6.57,6.44-8.26c7.75-3.87,12.33-10.24,12.88-17.92
			c0.23-3.14,1.9-5.87,4.99-8.1c2.37-1.71,4.98-2.77,6.75-3.35c0.26-0.12,0.61-0.29,0.96-0.46c0.63-0.31,1.14-0.56,1.6-0.86
			c1.75-1.1,2.98-2.52,3.86-4.46c0.49-1.08,0.9-2.09,1.27-3.09l0.27-0.71c0.31-0.83,0.63-1.68,0.89-2.53
			c1.93-6.24,4.93-10.01,9.16-11.53c3.33-1.19,7.24-2.64,11.53-4.74c1.74-0.85,3.47-1.8,5.31-2.8c3.98-2.17,8.1-4.42,12.74-5.97
			c1.37-0.46,2.73-0.96,4.08-1.45c1.01-0.37,2.02-0.74,3.02-1.09c5.85-2.04,11.78-3.88,15.57-3.53l2.33,0.22
			c8.98,0.84,17.46,1.64,33.19-0.41c1.29-0.17,2.55-0.15,3.77-0.13c0.84,0.01,1.63,0.03,2.4-0.02c5.78-0.35,11.1,0.23,15.38,0.7
			c1.4,0.15,2.88,0.32,4.2,0.58c0.89,0.17,1.6,0.33,2.25,0.51c0.62,0.17,1.27,0.37,1.85,0.66l0.19,0.09l0.14,0.16
			c7.57,8.69,0.07,28.21-20.59,53.57c-1.9,3.69-4.18,7.51-7.17,12.02c-5.97,9.01-12.81,17.21-20.34,24.36
			c-19.13,18.17-43.27,31.73-67.98,38.19c-1.16,0.3-2.3,0.63-3.42,0.96c-1.63,0.48-3.17,0.92-4.75,1.28
			c-6.7,1.52-13.97,3.11-21.59,4.71c-2.85,0.6-5.78,1.27-8.88,1.98C107.54,229.49,97.76,231.74,90.35,231.74z M205.11,89.86
			c-3.49,0-8.95,1.73-13.91,3.46c-0.99,0.35-1.99,0.71-2.99,1.08c-1.37,0.5-2.74,1.01-4.13,1.47h0c-4.46,1.49-8.5,3.69-12.41,5.82
			c-1.86,1.01-3.61,1.97-5.39,2.84c-4.38,2.15-8.36,3.62-11.75,4.83c-3.58,1.28-6.16,4.62-7.89,10.2c-0.28,0.9-0.61,1.79-0.93,2.64
			l-0.26,0.71c-0.39,1.05-0.82,2.1-1.33,3.22c-1.04,2.29-2.55,4.04-4.63,5.35c-0.55,0.34-1.11,0.62-1.73,0.93
			c-0.44,0.21-0.81,0.4-1.19,0.56c-1.73,0.57-4.13,1.54-6.29,3.1c-2.57,1.86-3.97,4.08-4.15,6.59c-0.6,8.31-5.7,15.46-14.01,19.6
			c-2.74,1.37-4.14,4.38-5.5,7.29l-0.44,0.93c-0.65,1.38-1.47,2.68-2.26,3.95c-0.43,0.69-0.86,1.38-1.27,2.09
			c-0.25,0.43-0.5,0.86-0.74,1.3c-0.83,1.47-1.63,2.95-2.43,4.43c-0.59,1.08-1.17,2.17-1.76,3.24c-1.7,3.07-3.6,6.3-5.44,9.43
			c-8.28,14.07-16.84,28.61-9.9,33.09c5.87,3.8,20.94,0.33,34.24-2.72c3.11-0.72,6.05-1.39,8.92-1.99c7.61-1.6,14.86-3.18,21.55-4.7
			c1.52-0.34,3.03-0.79,4.63-1.25c1.14-0.33,2.29-0.67,3.47-0.98c24.38-6.37,48.21-19.76,67.09-37.69
			c7.42-7.05,14.16-15.12,20.04-24c2.97-4.48,5.23-8.27,7.11-11.92l0.12-0.18c19.59-24.02,27.35-42.99,20.84-50.85
			c-0.4-0.17-0.87-0.31-1.33-0.44c-0.59-0.16-1.25-0.31-2.08-0.47c-1.25-0.24-2.68-0.4-4.04-0.55c-4.2-0.46-9.43-1.03-15.04-0.7
			c-0.85,0.05-1.72,0.04-2.56,0.02c-1.14-0.02-2.32-0.04-3.47,0.11c-15.96,2.08-24.55,1.27-33.65,0.42l-2.33-0.22
			C205.66,89.88,205.39,89.86,205.11,89.86z"/>
	</g>
	<g>
		<linearGradient id="SVGID_25_" gradientUnits="userSpaceOnUse" x1="177.1006" y1="230.2445" x2="177.1006" y2="89.4684">
			<stop  offset="0" style="stop-color:#FF7CAE"/>
			<stop  offset="0.349" style="stop-color:#B50A94"/>
			<stop  offset="0.6755" style="stop-color:#4D0672"/>
			<stop  offset="1" style="stop-color:#5861D6"/>
		</linearGradient>
		<path class="st24" d="M90.18,230.24c-2.92,0-5.37-0.45-7.14-1.52c-1.55-0.94-2.54-2.31-2.94-4.06
			c-1.54-6.77,5.93-18.23,13.83-30.37c2.07-3.17,4.2-6.45,6.08-9.53c0.66-1.08,1.31-2.16,1.96-3.25c0.83-1.38,1.66-2.77,2.5-4.13
			c0.26-0.42,0.53-0.85,0.79-1.27c0.44-0.69,0.89-1.36,1.35-2.03c0.84-1.23,1.63-2.4,2.27-3.63l0.52-1.01
			c1.44-2.8,3.06-5.98,6.15-7.61c7.22-3.8,11.66-9.82,12.51-16.94c0.35-2.92,1.98-5.49,4.86-7.66c1.74-1.31,3.91-2.48,6.29-3.38
			c0.23-0.12,0.54-0.28,0.86-0.45l0.1-0.06c0.49-0.26,0.99-0.52,1.44-0.82c1.64-1.08,2.81-2.43,3.67-4.24
			c0.49-1.03,0.91-1.98,1.28-2.9l0.27-0.67c0.32-0.79,0.64-1.57,0.91-2.38c1.27-3.71,3.57-8.88,8.79-10.95
			c3.13-1.24,6.8-2.74,10.82-4.8c1.58-0.81,3.15-1.69,4.83-2.63c3.8-2.13,7.73-4.33,12.18-5.96c1.32-0.48,2.63-1.01,3.94-1.53
			c1.01-0.4,2.01-0.8,3-1.18c5.77-2.19,11.62-4.18,15.29-3.91l2.23,0.17c8.69,0.66,16.9,1.28,32.8-1.4c1.49-0.25,2.94-0.3,4.34-0.35
			c0.61-0.02,1.21-0.04,1.81-0.08c5.09-0.32,10.23-0.33,15.26-0.03c1.47,0.09,2.89,0.18,4.21,0.37c0.9,0.13,1.62,0.26,2.26,0.41
			c0.61,0.14,1.27,0.31,1.87,0.58l0.2,0.09l0.15,0.17c7.27,8.12-0.99,27.16-22.65,52.23c-1.97,3.44-4.31,7.04-7.37,11.32
			c-6.06,8.5-12.86,16.23-20.21,22.97c-18.73,17.2-42,30.33-65.52,36.98c-1.14,0.32-2.26,0.67-3.36,1.02
			c-1.58,0.5-3.07,0.96-4.6,1.35c-6.5,1.63-13.68,3.4-21.06,5.2c-3.09,0.76-6.29,1.62-9.68,2.53
			C107.45,227.54,97.38,230.24,90.18,230.24z M205.89,93.44c-3.35,0-8.85,1.91-13.84,3.8c-0.98,0.37-1.97,0.77-2.97,1.17
			c-1.32,0.53-2.65,1.06-3.99,1.55l0,0c-4.28,1.57-8.14,3.73-11.87,5.82c-1.69,0.95-3.28,1.84-4.89,2.67
			c-4.1,2.11-7.83,3.63-11,4.88c-4.42,1.75-6.45,6.37-7.59,9.69c-0.29,0.84-0.62,1.66-0.95,2.48l-0.27,0.66
			c-0.38,0.96-0.82,1.95-1.33,3.02c-1.02,2.14-2.46,3.8-4.4,5.08c-0.53,0.35-1.11,0.66-1.62,0.92c-0.43,0.23-0.77,0.41-1.11,0.57
			c-2.28,0.88-4.28,1.95-5.87,3.14c-2.4,1.81-3.76,3.91-4.04,6.24c-0.94,7.82-5.77,14.41-13.61,18.54c-2.5,1.32-3.91,4.06-5.27,6.71
			l-0.53,1.03c-0.7,1.33-1.56,2.61-2.4,3.83c-0.44,0.65-0.89,1.31-1.31,1.98c-0.26,0.41-0.52,0.83-0.78,1.25
			c-0.84,1.36-1.66,2.73-2.49,4.11c-0.66,1.1-1.31,2.19-1.97,3.27c-1.9,3.1-4.04,6.39-6.11,9.58
			c-7.32,11.24-14.89,22.87-13.55,28.77c0.27,1.2,0.92,2.1,1.99,2.74c5.38,3.26,19.85-0.63,32.61-4.06
			c3.25-0.87,6.61-1.78,9.72-2.54c7.38-1.81,14.56-3.58,21.05-5.2c1.47-0.37,2.93-0.83,4.48-1.31c1.12-0.35,2.25-0.71,3.42-1.04
			c23.21-6.56,46.18-19.53,64.67-36.51c7.24-6.64,13.94-14.27,19.92-22.65c3.04-4.26,5.36-7.83,7.3-11.23l0.12-0.16
			c20.17-23.32,28.91-42.19,22.89-49.37c-0.4-0.15-0.86-0.27-1.3-0.37c-0.58-0.14-1.24-0.25-2.08-0.38
			c-1.23-0.18-2.61-0.27-4.03-0.35c-4.95-0.29-10-0.29-15,0.03c-0.62,0.04-1.24,0.06-1.87,0.08c-1.33,0.04-2.72,0.09-4.06,0.32
			c-16.15,2.73-24.48,2.09-33.3,1.43l-2.22-0.17C206.27,93.45,206.08,93.44,205.89,93.44z"/>
	</g>
	<g>
		<linearGradient id="SVGID_26_" gradientUnits="userSpaceOnUse" x1="177.9108" y1="228.8304" x2="177.9108" y2="91.1164">
			<stop  offset="0" style="stop-color:#FF7CAE"/>
			<stop  offset="0.349" style="stop-color:#B50A94"/>
			<stop  offset="0.6755" style="stop-color:#4D0672"/>
			<stop  offset="1" style="stop-color:#5861D6"/>
		</linearGradient>
		<path class="st25" d="M90.33,228.83c-2.24,0-4.13-0.34-5.53-1.12c-1.44-0.81-2.34-2.02-2.69-3.59c-1.4-6.33,6.69-17.6,15.25-29.53
			c2.29-3.19,4.66-6.5,6.74-9.57c0.73-1.09,1.46-2.18,2.19-3.28c0.85-1.28,1.69-2.55,2.55-3.81l0.83-1.22
			c0.45-0.65,0.92-1.29,1.39-1.93c0.88-1.19,1.71-2.32,2.4-3.51c0.21-0.36,0.41-0.72,0.62-1.08c1.43-2.53,3.05-5.41,5.86-6.97
			c6.68-3.73,11-9.41,12.15-15.98c0.47-2.69,2.06-5.11,4.71-7.2c1.63-1.28,3.59-2.43,5.83-3.42c0.17-0.1,0.42-0.24,0.66-0.38
			l0.24-0.14c0.52-0.3,0.94-0.54,1.34-0.82c1.51-1.05,2.65-2.37,3.49-4.03c0.5-0.99,0.92-1.88,1.28-2.71l0.28-0.65
			c0.32-0.72,0.64-1.45,0.92-2.2c1.31-3.43,3.61-8.24,8.42-10.36c2.92-1.29,6.35-2.83,10.11-4.86c1.4-0.76,2.83-1.58,4.3-2.43
			c3.63-2.1,7.39-4.27,11.66-5.98h0c1.26-0.5,2.51-1.05,3.75-1.58c1.01-0.44,2.02-0.87,3.02-1.28c5.43-2.23,11.45-4.47,15-4.3
			l2.2,0.12c8.4,0.47,16.33,0.92,32.33-2.41c1.47-0.3,2.9-0.42,4.29-0.54c0.6-0.05,1.2-0.1,1.79-0.16c3.45-0.37,6.62-0.46,9.68-0.54
			c1.91-0.05,3.71-0.1,5.41-0.22c1.52-0.1,2.89,0.03,4.11,0.14l0.18,0.02c0.9,0.08,1.62,0.18,2.27,0.3
			c0.58,0.11,1.26,0.26,1.89,0.51l0.22,0.09l0.16,0.18c6.87,7.45-2.36,26.47-24.71,50.88c-2.04,3.2-4.44,6.58-7.56,10.62
			c-6.16,7.98-12.91,15.25-20.07,21.58c-18.34,16.24-40.73,28.94-63.05,35.76c-1.12,0.34-2.21,0.71-3.29,1.07
			c-1.54,0.52-2.99,1-4.47,1.41c-6.29,1.73-13.3,3.66-20.54,5.7c-3.3,0.93-6.75,1.99-10.4,3.13
			C107.51,225.65,97.23,228.83,90.33,228.83z M186.11,104.03c-4.13,1.65-7.82,3.78-11.39,5.84c-1.49,0.86-2.93,1.69-4.35,2.46
			c-3.82,2.06-7.3,3.63-10.26,4.93c-4.04,1.78-6.02,5.84-7.29,9.18c-0.3,0.78-0.63,1.54-0.96,2.29l-0.28,0.64
			c-0.38,0.87-0.81,1.8-1.33,2.82c-1,1.98-2.37,3.56-4.17,4.81c-0.45,0.31-0.93,0.59-1.41,0.87l-0.32,0.18
			c-0.26,0.15-0.52,0.3-0.79,0.45c-2.15,0.96-3.96,2.02-5.45,3.18c-2.23,1.76-3.56,3.74-3.94,5.9c-1.27,7.21-5.96,13.42-13.21,17.47
			c-2.28,1.27-3.68,3.76-5.04,6.16c-0.21,0.37-0.42,0.74-0.63,1.11c-0.75,1.29-1.65,2.52-2.53,3.7c-0.46,0.62-0.91,1.24-1.35,1.88
			l-0.82,1.2c-0.85,1.25-1.69,2.52-2.53,3.79c-0.73,1.1-1.46,2.2-2.2,3.29c-2.09,3.1-4.47,6.42-6.77,9.62
			c-7.55,10.52-16.1,22.44-14.9,27.84c0.22,0.97,0.76,1.69,1.66,2.2c4.9,2.76,18.8-1.55,31.06-5.34c3.51-1.09,7.13-2.21,10.46-3.14
			c7.25-2.03,14.26-3.97,20.55-5.7c1.43-0.39,2.85-0.87,4.36-1.38c1.09-0.37,2.21-0.74,3.35-1.09
			c22.03-6.74,44.14-19.29,62.26-35.33c7.06-6.25,13.72-13.41,19.8-21.29c3.1-4.02,5.49-7.37,7.5-10.54l0.11-0.15
			c21.05-22.98,30.56-41.27,24.94-47.89c-0.42-0.14-0.89-0.24-1.27-0.31c-0.58-0.11-1.24-0.2-2.07-0.28l-0.19-0.02
			c-1.19-0.11-2.42-0.23-3.76-0.14c-1.75,0.12-3.57,0.17-5.5,0.22c-3.02,0.08-6.15,0.17-9.51,0.53c-0.61,0.07-1.23,0.12-1.85,0.17
			c-1.32,0.11-2.69,0.22-4.03,0.5c-16.28,3.38-24.34,2.93-32.88,2.45l-2.2-0.12c-3.13-0.17-9.18,2.12-14.08,4.14
			c-0.99,0.41-1.98,0.84-2.98,1.27C188.65,102.97,187.38,103.52,186.11,104.03L186.11,104.03z"/>
	</g>
	<g>
		<linearGradient id="SVGID_27_" gradientUnits="userSpaceOnUse" x1="178.7585" y1="227.515" x2="178.7585" y2="92.5404">
			<stop  offset="0" style="stop-color:#FF7CAE"/>
			<stop  offset="0.349" style="stop-color:#B50A94"/>
			<stop  offset="0.6755" style="stop-color:#4D0672"/>
			<stop  offset="1" style="stop-color:#5861D6"/>
		</linearGradient>
		<path class="st26" d="M90.83,227.51c-1.7,0-3.14-0.25-4.25-0.83c-1.34-0.68-2.17-1.74-2.48-3.15c-1.29-5.88,7.46-17,16.73-28.77
			c2.5-3.18,5.09-6.47,7.35-9.51c0.8-1.08,1.6-2.18,2.4-3.27c0.87-1.18,1.73-2.37,2.6-3.53c0.29-0.39,0.58-0.78,0.87-1.17
			c0.47-0.62,0.95-1.22,1.43-1.82c0.92-1.15,1.79-2.25,2.53-3.4c0.24-0.38,0.48-0.76,0.72-1.14c1.49-2.38,3.03-4.85,5.54-6.34
			c7.89-4.69,10.77-10.76,11.8-15.03c0.59-2.45,2.13-4.72,4.56-6.73c1.48-1.23,3.28-2.39,5.35-3.45c0.14-0.09,0.34-0.21,0.54-0.34
			l0.45-0.28c0.38-0.24,0.75-0.47,1.1-0.72c1.4-1.03,2.49-2.28,3.31-3.82c0.45-0.84,0.88-1.67,1.28-2.53l0.3-0.62
			c0.32-0.67,0.64-1.34,0.93-2.03c1.46-3.42,3.69-7.62,8.03-9.76c3-1.48,5.98-2.98,9.4-4.92c1.21-0.69,2.44-1.43,3.71-2.18
			c3.48-2.08,7.08-4.23,11.2-6.04h0c1.18-0.52,2.36-1.07,3.53-1.61c1.03-0.48,2.06-0.96,3.08-1.42c7.58-3.36,11.95-4.76,14.71-4.68
			l2.26,0.08c8.09,0.28,15.73,0.56,31.78-3.41c1.45-0.36,2.88-0.55,4.26-0.73c0.59-0.08,1.18-0.15,1.75-0.24
			c5.11-0.79,10.19-1.3,15.1-1.5c1.65-0.07,3-0.1,4.21-0.05c0.88,0.04,1.62,0.1,2.28,0.2c0.55,0.08,1.26,0.2,1.91,0.43l0.24,0.09
			l0.18,0.19c6.6,6.9-3.41,25.41-26.77,49.54c-2.1,2.96-4.57,6.11-7.76,9.92c-6.25,7.46-12.96,14.25-19.94,20.19
			c-17.96,15.29-39.48,27.56-60.58,34.55c-1.08,0.36-2.14,0.74-3.18,1.11c-1.5,0.54-2.93,1.05-4.38,1.49
			c-6.76,2.03-13.49,4.11-20.02,6.19c-3.5,1.11-7.37,2.47-11.11,3.79C107.28,223.97,97.2,227.51,90.83,227.51z M187.13,108.11
			c-3.99,1.75-7.53,3.87-10.96,5.91c-1.28,0.77-2.53,1.51-3.75,2.21c-3.47,1.97-6.48,3.48-9.51,4.98c-3.68,1.82-5.61,5.41-7,8.68
			c-0.31,0.72-0.64,1.42-0.97,2.11l-0.29,0.61c-0.42,0.89-0.87,1.76-1.33,2.63c-0.98,1.83-2.27,3.31-3.94,4.54
			c-0.39,0.29-0.81,0.55-1.24,0.82l-0.43,0.27c-0.22,0.14-0.43,0.27-0.65,0.4c-1.99,1.03-3.66,2.1-5.03,3.23
			c-2.1,1.73-3.36,3.56-3.84,5.57c-1.12,4.67-4.26,11.3-12.79,16.38c-2.07,1.23-3.46,3.47-4.82,5.63c-0.25,0.39-0.49,0.79-0.74,1.17
			c-0.8,1.24-1.75,2.43-2.66,3.57c-0.47,0.59-0.94,1.17-1.39,1.78c-0.29,0.38-0.58,0.76-0.86,1.15c-0.87,1.16-1.73,2.34-2.59,3.52
			c-0.8,1.1-1.6,2.19-2.41,3.28c-2.28,3.07-4.88,6.37-7.39,9.56c-8.15,10.35-17.38,22.09-16.31,26.97c0.17,0.77,0.6,1.3,1.35,1.69
			c4.45,2.28,17.78-2.41,29.54-6.55c3.76-1.32,7.65-2.69,11.17-3.81c6.54-2.08,13.28-4.16,20.05-6.2c1.4-0.42,2.79-0.92,4.27-1.45
			c1.06-0.38,2.13-0.77,3.24-1.13c20.84-6.9,42.1-19.03,59.86-34.14c6.89-5.86,13.51-12.57,19.68-19.94
			c3.18-3.79,5.62-6.92,7.7-9.85l0.11-0.13c21.58-22.28,32.12-40.42,26.99-46.41c-0.32-0.09-0.72-0.17-1.25-0.25
			c-0.58-0.08-1.26-0.14-2.07-0.18c-1.14-0.05-2.43-0.02-4.02,0.05c-4.83,0.2-9.83,0.7-14.86,1.47c-0.59,0.09-1.19,0.17-1.8,0.25
			c-1.32,0.17-2.69,0.35-4.03,0.68c-16.34,4.04-24.13,3.76-32.37,3.47l-2.25-0.08c-0.06,0-0.11,0-0.17,0c-3.07,0-8.86,2.39-13.6,4.5
			c-1.01,0.45-2.02,0.92-3.04,1.4C189.52,107.02,188.33,107.58,187.13,108.11L187.13,108.11z"/>
	</g>
	<g>
		<linearGradient id="SVGID_28_" gradientUnits="userSpaceOnUse" x1="179.6186" y1="226.234" x2="179.6186" y2="93.8192">
			<stop  offset="0" style="stop-color:#FF7CAE"/>
			<stop  offset="0.349" style="stop-color:#B50A94"/>
			<stop  offset="0.6755" style="stop-color:#4D0672"/>
			<stop  offset="1" style="stop-color:#5861D6"/>
		</linearGradient>
		<path class="st27" d="M91.49,226.23c-1.24,0-2.3-0.17-3.13-0.56c-1.23-0.56-2.02-1.51-2.29-2.75
			c-1.19-5.44,8.27-16.44,18.28-28.08c2.7-3.13,5.49-6.38,7.91-9.35c0.86-1.05,1.71-2.11,2.56-3.17c0.9-1.12,1.81-2.24,2.71-3.34
			l0.91-1.11c0.48-0.58,0.97-1.15,1.45-1.71c0.97-1.12,1.88-2.18,2.68-3.29c0.28-0.39,0.56-0.79,0.83-1.19
			c1.47-2.11,2.98-4.3,5.22-5.72c5.72-3.65,9.68-8.52,11.46-14.09c0.72-2.24,2.16-4.28,4.4-6.25c1.36-1.19,2.96-2.33,4.88-3.48
			c0.12-0.08,0.29-0.2,0.45-0.32l0.56-0.39c0.32-0.22,0.63-0.43,0.93-0.66c1.3-1.01,2.33-2.2,3.14-3.62
			c0.45-0.78,0.88-1.55,1.29-2.34l0.31-0.6c0.32-0.61,0.64-1.22,0.94-1.85c1.59-3.31,3.73-6.99,7.64-9.16l0.21-0.12
			c2.62-1.46,5.33-2.96,8.48-4.86c0.98-0.59,1.98-1.22,3.02-1.86c3.2-1.99,6.83-4.25,10.85-6.18l0,0c1.06-0.51,2.12-1.04,3.18-1.57
			c1.1-0.55,2.19-1.1,3.28-1.62c6.54-3.13,11.52-5.17,14.46-5.06c8.96,0.37,15.95,0.66,33.51-4.38c1.45-0.42,2.88-0.67,4.26-0.93
			c0.57-0.1,1.14-0.21,1.7-0.32c5.13-1.04,10.18-1.79,15.01-2.23c1.44-0.13,2.76-0.19,3.93-0.24l0.24-0.01
			c0.85-0.04,1.62,0.02,2.34,0.09c0.81,0.08,1.4,0.19,1.92,0.35l0.26,0.08l0.19,0.19c1.21,1.22,1.82,2.87,1.81,4.92
			c-0.06,8.54-11.23,24.31-30.64,43.29c-2.17,2.73-4.7,5.66-7.96,9.22c-6.33,6.93-12.99,13.25-19.8,18.8
			c-17.6,14.36-38.24,26.2-58.1,33.33c-1.05,0.38-2.07,0.77-3.07,1.15c-1.48,0.57-2.87,1.11-4.3,1.57
			c-6.28,2.06-13.02,4.37-19.5,6.68c-3.67,1.31-7.79,2.94-11.77,4.52C107.54,222.23,97.42,226.23,91.49,226.23z M207.94,104.14
			c-2.82,0-8.3,2.44-13.34,4.85c-1.07,0.51-2.15,1.06-3.24,1.6c-1.07,0.54-2.14,1.08-3.21,1.59l0,0c-3.91,1.88-7.48,4.1-10.64,6.06
			c-1.04,0.65-2.06,1.28-3.04,1.87c-3.18,1.92-6.04,3.51-8.55,4.9l-0.21,0.12c-3.37,1.87-5.29,5.19-6.73,8.19
			c-0.31,0.65-0.64,1.29-0.98,1.92l-0.31,0.6c-0.43,0.82-0.87,1.62-1.34,2.43c-0.96,1.67-2.17,3.06-3.7,4.25
			c-0.33,0.26-0.69,0.5-1.04,0.74l-0.53,0.37c-0.18,0.13-0.36,0.25-0.54,0.38c-1.85,1.11-3.35,2.17-4.61,3.28
			c-1.94,1.69-3.16,3.41-3.75,5.26c-1.94,6.07-6.22,11.35-12.37,15.28c-1.86,1.19-3.25,3.19-4.59,5.12
			c-0.28,0.41-0.57,0.82-0.85,1.22c-0.86,1.19-1.84,2.34-2.8,3.45c-0.47,0.55-0.95,1.1-1.42,1.67l-0.91,1.1
			c-0.9,1.1-1.8,2.22-2.7,3.33c-0.85,1.06-1.71,2.12-2.57,3.18c-2.44,3-5.24,6.25-7.95,9.39c-8.79,10.22-18.76,21.8-17.8,26.17
			c0.12,0.57,0.45,0.94,1.06,1.22c4.01,1.83,16.79-3.23,28.07-7.69c4-1.58,8.13-3.22,11.84-4.54c6.5-2.32,13.26-4.63,19.55-6.7
			c1.37-0.45,2.74-0.98,4.19-1.53c1.02-0.39,2.05-0.79,3.12-1.17c19.64-7.05,40.04-18.76,57.45-32.97
			c6.72-5.48,13.3-11.74,19.57-18.58c3.24-3.55,5.76-6.46,7.9-9.16l0.09-0.1c18.75-18.32,29.97-33.93,30.03-41.78
			c0.01-1.34-0.31-2.37-0.98-3.15c-0.32-0.08-0.72-0.14-1.22-0.19c-0.59-0.06-1.27-0.12-2.02-0.08l-0.24,0.01
			c-1.14,0.05-2.43,0.11-3.82,0.24c-4.76,0.44-9.73,1.18-14.78,2.2c-0.57,0.11-1.15,0.22-1.74,0.33c-1.33,0.24-2.7,0.49-4.04,0.88
			c-17.9,5.13-25.41,4.82-34.11,4.46C208.06,104.14,208,104.14,207.94,104.14z"/>
	</g>
	<g>
		<linearGradient id="SVGID_29_" gradientUnits="userSpaceOnUse" x1="180.4523" y1="225.0151" x2="180.4523" y2="95.0535">
			<stop  offset="0" style="stop-color:#FF7CAE"/>
			<stop  offset="0.349" style="stop-color:#B50A94"/>
			<stop  offset="0.6755" style="stop-color:#4D0672"/>
			<stop  offset="1" style="stop-color:#5861D6"/>
		</linearGradient>
		<path class="st28" d="M92.36,225.02c-0.86,0-1.6-0.11-2.21-0.35c-1.45-0.57-1.96-1.61-2.14-2.38
			c-1.05-4.66,6.85-13.49,19.97-27.48c2.99-3.19,5.81-6.19,8.37-9.06c0.94-1.05,1.88-2.1,2.81-3.15c0.91-1.03,1.83-2.05,2.73-3.07
			l0.95-1.06c0.49-0.54,0.98-1.06,1.46-1.59c1.02-1.09,1.98-2.12,2.84-3.2c0.33-0.41,0.65-0.82,0.97-1.24
			c1.43-1.84,2.91-3.75,4.86-5.09c5.27-3.63,9.01-8.06,11.13-13.17c0.83-1.99,2.21-3.87,4.23-5.75c1.24-1.15,2.63-2.26,4.4-3.5
			l1.04-0.8c0.26-0.19,0.51-0.38,0.75-0.58c1.2-1,2.17-2.12,2.98-3.43c0.45-0.72,0.88-1.43,1.3-2.16l0.32-0.56
			c0.32-0.56,0.65-1.12,0.96-1.7c1.7-3.13,3.75-6.34,7.23-8.54l2.1-1.32c1.79-1.13,3.74-2.34,5.89-3.73
			c0.69-0.44,1.39-0.9,2.11-1.37c3.13-2.04,6.68-4.36,10.71-6.48v0c0.91-0.48,1.81-0.97,2.72-1.46c1.2-0.65,2.4-1.3,3.58-1.91
			c6.47-3.32,11.38-5.53,14.18-5.45c8.51,0.21,15.23,0.38,33.01-5.42c1.44-0.47,2.87-0.8,4.25-1.13c0.55-0.13,1.1-0.26,1.64-0.39
			c5.15-1.29,10.18-2.29,14.93-2.97c1.41-0.2,2.89-0.4,4.22-0.47c0.88-0.05,1.63-0.05,2.3-0.01c0.79,0.04,1.41,0.13,1.94,0.27
			l0.27,0.07l0.21,0.2c1.09,1.04,1.63,2.46,1.61,4.22c-0.06,7.92-12.23,23.88-32.54,42.69c-2.18,2.45-4.79,5.17-8.12,8.49
			c-6.41,6.38-13.02,12.24-19.66,17.41c-17.27,13.46-37.02,24.86-55.62,32.11c-0.97,0.38-1.92,0.77-2.86,1.15
			c-1.48,0.61-2.88,1.18-4.31,1.69c-6.07,2.17-12.63,4.65-18.98,7.17c-3.85,1.53-8.21,3.46-12.44,5.32
			C107.88,220.56,97.79,225.02,92.36,225.02z M189.17,116.25c-3.93,2.07-7.43,4.35-10.52,6.37c-0.73,0.47-1.43,0.94-2.13,1.38
			c-2.16,1.39-4.11,2.62-5.92,3.75l-2.1,1.32c-3.05,1.92-4.91,4.84-6.46,7.71c-0.32,0.59-0.66,1.17-0.99,1.75l-0.32,0.55
			c-0.43,0.75-0.88,1.48-1.34,2.22c-0.94,1.51-2.07,2.81-3.45,3.96c-0.27,0.23-0.56,0.44-0.85,0.66l-1.06,0.82
			c-1.72,1.21-3.04,2.26-4.2,3.33c-1.78,1.65-2.98,3.28-3.68,4.96c-2.29,5.51-6.3,10.28-11.93,14.16c-1.66,1.15-2.97,2.84-4.36,4.62
			c-0.33,0.42-0.66,0.85-0.99,1.26c-0.91,1.14-1.95,2.25-2.95,3.33c-0.48,0.51-0.96,1.03-1.44,1.56l-0.95,1.05
			c-0.9,1.01-1.81,2.03-2.73,3.06c-0.93,1.05-1.87,2.11-2.81,3.16c-2.58,2.88-5.54,6.04-8.41,9.09
			c-9.03,9.63-20.28,21.62-19.42,25.46c0.06,0.26,0.2,0.56,0.78,0.79c3.58,1.41,15.81-3.99,26.6-8.75
			c4.24-1.87,8.62-3.81,12.51-5.36c6.37-2.53,12.96-5.02,19.05-7.2c1.38-0.49,2.75-1.06,4.21-1.66c0.95-0.39,1.91-0.79,2.9-1.17
			c18.4-7.17,37.95-18.46,55.06-31.79c6.56-5.11,13.11-10.91,19.45-17.23c3.3-3.29,5.87-5.98,8.1-8.47
			c19.65-18.2,31.84-33.93,31.9-41.14c0.01-1.01-0.23-1.79-0.73-2.38c-0.32-0.06-0.71-0.11-1.19-0.13
			c-0.59-0.03-1.26-0.03-2.06,0.01c-1.23,0.06-2.66,0.25-4.01,0.45c-4.68,0.67-9.63,1.65-14.71,2.92c-0.55,0.14-1.11,0.27-1.67,0.4
			c-1.33,0.31-2.71,0.63-4.06,1.07c-18.15,5.92-25.04,5.75-33.76,5.53c-0.03,0-0.06,0-0.09,0c-2.54,0-7.99,2.63-13.02,5.2
			c-1.17,0.6-2.35,1.24-3.54,1.88C191,115.27,190.09,115.77,189.17,116.25L189.17,116.25z"/>
	</g>
	<g>
		<linearGradient id="SVGID_30_" gradientUnits="userSpaceOnUse" x1="181.2903" y1="223.865" x2="181.2903" y2="96.2356">
			<stop  offset="0" style="stop-color:#FF7CAE"/>
			<stop  offset="0.349" style="stop-color:#B50A94"/>
			<stop  offset="0.6755" style="stop-color:#4D0672"/>
			<stop  offset="1" style="stop-color:#5861D6"/>
		</linearGradient>
		<path class="st29" d="M93.5,223.86c-0.58,0-1.1-0.07-1.54-0.21c-1.37-0.44-1.85-1.36-2.02-2.05c-1.01-4.27,7.66-13.14,22.05-27.24
			c3.01-2.95,5.86-5.74,8.45-8.37l6.8-6.94c0.48-0.49,0.96-0.96,1.44-1.44c1.08-1.07,2.1-2.09,3.04-3.13
			c0.38-0.43,0.76-0.86,1.14-1.29c1.37-1.57,2.79-3.2,4.44-4.44c4.74-3.57,8.39-7.69,10.83-12.27c0.93-1.74,2.25-3.45,4.04-5.23
			c1.1-1.1,2.35-2.21,3.92-3.51l1.03-0.9c0.21-0.17,0.41-0.34,0.61-0.52c1.09-0.98,2.02-2.05,2.83-3.25
			c0.45-0.66,0.88-1.31,1.3-1.97l0.17-0.27c0.38-0.6,0.77-1.19,1.14-1.8c1.6-2.6,3.58-5.56,6.82-7.9c2.06-1.49,4.41-3.13,7.3-5.13
			l0.74-0.51c3.18-2.2,6.78-4.7,11.04-7.16l1.83-1.06c1.45-0.84,2.89-1.68,4.31-2.47c7.03-3.86,11.42-5.72,13.84-5.83
			c0.89-0.04,1.76-0.07,2.63-0.11c7.21-0.27,14.02-0.52,29.94-6.35c1.46-0.53,2.89-0.95,4.29-1.34c0.52-0.15,1.03-0.29,1.53-0.44
			c5.18-1.54,10.18-2.79,14.85-3.7c1.32-0.26,2.85-0.54,4.22-0.68c0.88-0.09,1.64-0.13,2.31-0.12c0.77,0.01,1.4,0.07,1.95,0.19
			l0.29,0.07l0.22,0.2c0.97,0.87,1.46,2.08,1.45,3.59c-0.05,7.4-12.91,23.09-34.42,41.98c-2.32,2.3-4.99,4.79-8.33,7.81
			c-6.44,5.81-13.01,11.2-19.51,16.02c-16.99,12.6-35.86,23.56-53.13,30.88c-0.86,0.36-1.7,0.73-2.52,1.09
			c-1.53,0.67-2.98,1.31-4.45,1.88c-6.01,2.34-12.39,4.99-18.45,7.66c-4.07,1.78-8.74,4.07-13.25,6.28
			C106.21,219.96,97.88,223.86,93.5,223.86z M190.2,120.31c-4.18,2.41-7.74,4.88-10.88,7.06l-0.74,0.51
			c-2.88,1.99-5.21,3.62-7.26,5.1c-2.9,2.09-4.73,4.84-6.21,7.25c-0.38,0.62-0.77,1.23-1.16,1.83l-0.17,0.27
			c-0.43,0.67-0.88,1.34-1.34,2.02c-0.92,1.35-1.96,2.55-3.19,3.66c-0.22,0.2-0.45,0.39-0.68,0.58l-1.02,0.88
			c-1.54,1.27-2.74,2.34-3.79,3.39c-1.62,1.62-2.81,3.15-3.63,4.69c-2.6,4.87-6.46,9.25-11.47,13.02c-1.47,1.1-2.74,2.57-4.1,4.12
			c-0.38,0.44-0.77,0.88-1.16,1.32c-0.98,1.1-2.03,2.13-3.13,3.23c-0.47,0.47-0.95,0.94-1.42,1.42l-6.8,6.94
			c-2.61,2.65-5.46,5.45-8.48,8.41c-9.38,9.19-22.22,21.77-21.43,25.09c0.02,0.09,0.06,0.26,0.5,0.4c3.17,1.02,14.77-4.65,25-9.66
			c4.54-2.22,9.22-4.51,13.33-6.32c6.09-2.69,12.5-5.35,18.55-7.7c1.42-0.55,2.85-1.18,4.36-1.84c0.84-0.37,1.68-0.74,2.55-1.1
			c17.11-7.25,35.82-18.13,52.67-30.62c6.44-4.78,12.95-10.12,19.34-15.88c3.32-2.99,5.96-5.46,8.3-7.78
			c20.45-17.96,33.66-33.77,33.7-40.32c0-0.71-0.16-1.27-0.5-1.68c-0.33-0.05-0.71-0.08-1.16-0.08c-0.6-0.01-1.27,0.03-2.06,0.11
			c-1.28,0.13-2.74,0.4-4.01,0.65c-4.6,0.9-9.52,2.12-14.63,3.65c-0.51,0.15-1.03,0.3-1.55,0.45c-1.35,0.39-2.75,0.79-4.13,1.29
			c-16.26,5.96-23.25,6.22-30.64,6.49c-0.86,0.03-1.73,0.06-2.61,0.11c-2,0.09-6.32,1.96-12.85,5.55c-1.41,0.78-2.84,1.61-4.26,2.44
			L190.2,120.31z"/>
	</g>
	<g>
		<linearGradient id="SVGID_31_" gradientUnits="userSpaceOnUse" x1="182.1268" y1="222.7401" x2="182.1268" y2="97.3911">
			<stop  offset="0" style="stop-color:#FF7CAE"/>
			<stop  offset="0.349" style="stop-color:#B50A94"/>
			<stop  offset="0.6755" style="stop-color:#4D0672"/>
			<stop  offset="1" style="stop-color:#5861D6"/>
		</linearGradient>
		<path class="st30" d="M94.7,222.74c-0.34,0-0.65-0.03-0.92-0.1c-1.37-0.33-1.8-1.23-1.93-1.74c-0.94-3.66,6.92-11.26,23.81-26.55
			c3.17-2.87,6.16-5.57,8.87-8.11l8.32-7.71c1.22-1.12,2.37-2.18,3.45-3.25c0.5-0.49,0.98-0.98,1.46-1.47
			c1.31-1.32,2.54-2.57,3.87-3.67c4.28-3.54,7.73-7.27,10.55-11.39c1.03-1.5,2.28-3.04,3.82-4.69c1.24-1.34,2.49-2.59,3.45-3.52
			l0.22-0.22c0.13-0.13,0.26-0.27,0.4-0.4l0.42-0.4c0.15-0.14,0.31-0.29,0.46-0.43c0.98-0.96,1.86-1.97,2.69-3.08
			c0.45-0.6,0.88-1.19,1.31-1.79l0.12-0.16c0.41-0.57,0.82-1.13,1.22-1.71c1.67-2.36,3.54-4.87,6.38-7.24
			c1.94-1.62,4.09-3.32,6.6-5.2c2.86-2.15,6.38-4.72,10.73-7.49l0,0c1.83-1.16,3.95-2.5,5.99-3.7c6.79-4,11.22-6.03,13.54-6.22
			c0.95-0.08,1.87-0.14,2.8-0.2c6.63-0.43,13.49-0.88,29.3-7.31c1.48-0.6,2.95-1.1,4.36-1.58l1.39-0.48
			c5.21-1.81,10.18-3.3,14.76-4.44c1.81-0.45,3.11-0.72,4.22-0.88c0.86-0.13,1.64-0.21,2.32-0.23c0.77-0.02,1.41,0.01,1.96,0.11
			l0.3,0.05l0.23,0.2c0.6,0.5,1.31,1.43,1.31,3.03c0,8.05-18.77,26.56-36.32,41.2c-2.49,2.16-5.3,4.49-8.55,7.13
			c-6.31,5.1-12.82,10.02-19.36,14.62c-16.95,11.87-34.93,22.4-50.64,29.66l-1.85,0.86c-1.7,0.8-3.31,1.55-4.92,2.23
			c-5.64,2.38-11.84,5.2-17.94,8.15c-4.21,2.04-9.1,4.68-13.84,7.23C106.69,218.53,98.58,222.74,94.7,222.74z M94.09,220.32
			c0.01,0,0.08,0.04,0.23,0.07c2.81,0.69,14.36-5.56,23.64-10.56c4.75-2.56,9.67-5.21,13.92-7.27c6.13-2.97,12.37-5.81,18.04-8.2
			c1.57-0.66,3.16-1.41,4.84-2.19l1.86-0.87c15.59-7.2,33.44-17.66,50.28-29.45c6.5-4.57,12.97-9.46,19.24-14.53
			c3.23-2.62,6.02-4.93,8.51-7.09c24.53-20.45,35.5-34.54,35.51-39.44c0-0.53-0.13-0.85-0.29-1.05c-0.32-0.03-0.7-0.05-1.13-0.03
			c-0.59,0.02-1.29,0.09-2.06,0.2c-1.03,0.15-2.27,0.41-4.01,0.84c-4.52,1.12-9.42,2.59-14.56,4.37l-1.4,0.48
			c-1.38,0.47-2.81,0.96-4.23,1.53c-16.16,6.57-23.21,7.03-30.02,7.47c-0.91,0.06-1.83,0.12-2.76,0.19
			c-1.09,0.09-4.16,0.97-12.55,5.91c-2.01,1.19-4.11,2.51-5.92,3.66l0,0c-4.29,2.72-7.76,5.26-10.58,7.38
			c-2.47,1.85-4.6,3.53-6.5,5.13c-2.63,2.2-4.39,4.57-5.97,6.81c-0.41,0.58-0.82,1.15-1.24,1.73l-0.12,0.16
			c-0.43,0.61-0.88,1.21-1.34,1.82c-0.9,1.2-1.85,2.29-2.92,3.34c-0.16,0.16-0.33,0.32-0.5,0.48l-0.39,0.37
			c-0.12,0.11-0.23,0.23-0.34,0.35l-0.25,0.25c-0.94,0.92-2.17,2.14-3.38,3.45c-1.48,1.59-2.63,3-3.61,4.43
			c-2.95,4.3-6.54,8.18-10.98,11.86c-1.24,1.03-2.43,2.24-3.7,3.51c-0.49,0.49-0.98,0.99-1.48,1.49c-1.11,1.1-2.28,2.17-3.51,3.3
			l-8.31,7.7c-2.72,2.54-5.72,5.26-8.9,8.13C108.27,204.16,93.31,217.7,94.09,220.32C94.09,220.32,94.09,220.32,94.09,220.32z"/>
	</g>
	<g>
		<linearGradient id="SVGID_32_" gradientUnits="userSpaceOnUse" x1="182.9716" y1="221.6497" x2="182.9716" y2="98.5263">
			<stop  offset="0" style="stop-color:#FF7CAE"/>
			<stop  offset="0.349" style="stop-color:#B50A94"/>
			<stop  offset="0.6755" style="stop-color:#4D0672"/>
			<stop  offset="1" style="stop-color:#5861D6"/>
		</linearGradient>
		<path class="st31" d="M96,221.65c-0.12,0-0.23-0.01-0.33-0.02c-1.39-0.25-1.79-1.07-1.92-1.53c-0.86-3.26,7.49-10.67,25.42-25.64
			c3.38-2.82,6.57-5.49,9.46-7.97l1.85-1.56c1.52-1.28,3.03-2.55,4.5-3.79c2.06-1.74,4.06-3.44,5.92-5.06
			c9.29-8.02,14.26-13.65,18.94-19.19l1.47-1.75c0.67-0.8,1.34-1.59,2.03-2.4c2.02-2.12,3.53-3.97,5.13-5.92
			c4.28-5.24,8.7-10.67,22.46-20.32c6.83-4.78,15.56-9.91,19.02-10.47c0.86-0.06,1.6-0.11,2.34-0.15c6.82-0.4,13.26-0.77,29.31-8.39
			c2-0.84,3.88-1.61,5.7-2.34c5.59-2.22,10.53-3.96,14.69-5.17c1.56-0.48,2.98-0.85,4.21-1.09c0.86-0.17,1.64-0.28,2.33-0.34
			c0.74-0.05,1.4-0.04,1.97,0.03l0.31,0.04l0.25,0.19c0.54,0.41,1.19,1.19,1.2,2.54c0.07,7.37-20.56,26.35-38.24,40.35
			c-2.84,2.13-5.78,4.29-8.78,6.45c-6.13,4.4-12.59,8.86-19.21,13.23c-16.96,11.21-34.06,21.31-48.14,28.42
			c-2.24,1.13-4.45,2.21-6.57,3.21c-4.61,2.05-10.3,4.88-17.43,8.65c-4.35,2.32-9.49,5.34-14.46,8.26
			C107.15,217.15,99.32,221.65,96,221.65z M96.06,219.31c0.03,0,0.06,0,0.09,0c2.68,0,13.43-6.31,22.09-11.4
			c4.99-2.93,10.14-5.96,14.55-8.31c7.18-3.8,12.92-6.65,17.55-8.71c2.08-0.98,4.27-2.05,6.49-3.17c14-7.08,31.02-17.12,47.9-28.29
			l0,0c6.59-4.36,13.03-8.79,19.14-13.18c2.98-2.14,5.92-4.3,8.71-6.4c25.7-20.35,37.37-34.21,37.33-38.47
			c0-0.24-0.04-0.39-0.11-0.5c-0.32-0.02-0.69-0.01-1.09,0.02c-0.6,0.05-1.29,0.15-2.06,0.3c-1.15,0.23-2.49,0.58-3.99,1.04
			c-4.1,1.19-8.97,2.91-14.5,5.1c-1.81,0.72-3.68,1.49-5.61,2.3c-16.42,7.8-23.39,8.2-30.13,8.59c-0.73,0.04-1.46,0.08-2.21,0.14
			c-2.55,0.41-10.48,4.84-17.94,10.06c-13.49,9.46-17.81,14.76-21.99,19.88c-1.55,1.91-3.16,3.88-5.2,6.01
			c-0.64,0.75-1.3,1.55-1.97,2.34l-1.48,1.75c-4.74,5.61-9.78,11.31-19.2,19.45c-1.87,1.62-3.87,3.32-5.94,5.07
			c-1.47,1.25-2.98,2.52-4.5,3.8l-1.85,1.55c-2.89,2.48-6.09,5.15-9.47,7.98C111.1,204.26,96.76,216.23,96.06,219.31z"/>
	</g>
</g>
</svg>
